<svg width="126" height="188" viewBox="0 0 126 188" fill="none" xmlns="http://www.w3.org/2000/svg">
<path d="M103.209 72.6309C103.226 72.2952 103.243 71.9763 103.243 71.6406C103.379 71.3049 103.193 70.9356 103.379 70.6167C103.396 70.281 103.413 69.9621 103.413 69.6264C103.548 69.2907 103.362 68.9214 103.548 68.6025C103.565 68.2668 103.582 67.9479 103.582 67.6122C103.718 67.2765 103.531 66.9072 103.718 66.5883C103.735 66.2526 103.752 65.9337 103.752 65.598C103.887 65.2623 103.701 64.893 103.887 64.5741C103.904 64.2384 103.921 63.9195 103.921 63.5838C104.056 63.2481 103.87 62.8789 104.056 62.5599C104.141 60.7975 104.023 59.0855 102.888 57.6084C102.6 57.2391 102.312 56.8698 102.041 56.5006C101.939 56.4334 101.922 56.3327 101.854 56.232C101.736 56.0642 101.6 55.9467 101.431 55.8292C100.296 54.9564 99.0256 54.4528 97.5858 54.285C96.7219 54.1843 95.858 54.05 95.028 53.7982C94.8247 53.7814 94.7062 53.9157 94.5707 54.0332C90.2174 53.3618 85.9149 52.4218 81.5786 51.6329C78.4957 51.0623 75.3959 50.4244 72.2792 50.0719C70.0771 49.8202 67.8412 50.0216 65.6222 50.0216C65.2495 50.0216 65.1479 50.1894 65.1479 50.5251C65.1648 51.3644 65.1649 52.2036 65.1649 53.0261C65.2496 53.5296 65.3004 54.05 65.3173 54.5703C65.3004 55.2081 65.3342 55.8292 65.4867 56.4502C65.5206 56.5341 65.5714 56.6181 65.6391 56.6684C67.7226 56.7859 68.6543 57.7762 68.6712 59.8576C68.6712 62.3585 68.6542 64.8595 68.6881 67.3772C68.705 68.6529 68.2816 69.66 67.1636 70.3314C66.8079 71.0699 67.0959 71.8252 67.1806 72.547C67.9767 79.0763 68.7559 85.5889 69.6537 92.1014C69.6706 92.2189 69.6706 92.3197 69.6706 92.4371C70.5175 98.8658 71.3645 105.294 72.1775 111.723C72.9228 117.598 73.6512 123.473 74.3118 129.364C74.6845 132.637 75.0571 135.91 75.3789 139.267C74.532 138.143 73.9222 136.968 73.6004 135.642C72.0589 129.347 70.382 123.07 68.7898 116.775C67.6549 112.294 66.4861 107.846 65.3681 103.364C65.2157 102.76 65.0294 102.256 64.2332 102.256C63.2847 102.24 62.9967 102.491 62.8442 103.415C62.5563 105.076 62.641 106.755 62.5732 108.433C62.4377 111.555 62.2853 114.677 62.1497 117.799C62.0142 120.787 61.9465 123.775 61.7093 126.746C61.6077 128.055 61.5907 129.364 61.5399 130.673C61.4383 133.829 61.1503 136.968 61.1673 140.123C61.1673 140.761 60.981 141.399 60.9979 142.037C61.0148 142.423 60.9471 142.826 61.2689 143.144C61.6924 143.379 62.1497 143.312 62.5901 143.329C66.503 143.329 70.4328 143.329 74.3457 143.329C75.7347 143.329 75.8024 143.396 75.8702 144.789C75.8871 145.259 75.9718 145.729 76.0565 146.199C76.0734 146.367 76.1073 146.518 76.192 146.669C76.3953 146.955 76.7002 146.988 77.0221 147.005C77.9706 147.022 78.9192 147.089 79.8677 146.938C80.1726 146.837 80.4776 146.854 80.7825 146.871C85.5423 146.904 90.2851 146.837 95.045 146.686C95.5192 146.669 96.0105 146.77 96.4339 146.451C98.077 146.434 99.737 146.384 101.38 146.418C102.024 146.434 101.956 146.166 101.82 145.746C100.94 143.077 100.076 140.392 99.195 137.723C98.9409 136.934 98.7038 136.145 98.4497 135.373C98.1617 135.088 97.8229 135.188 97.5011 135.239C93.8931 135.742 90.3021 136.212 86.6941 136.733C85.5423 136.9 84.3904 136.984 83.2725 136.531C81.3245 135.742 80.2404 134.248 79.9524 132.217C78.9869 125.503 78.0045 118.789 77.1067 112.059C76.751 109.39 78.9361 106.839 81.9004 106.453C84.1025 106.167 86.3045 105.798 88.5235 105.563C88.7776 105.529 89.0317 105.529 89.1841 105.278C88.2016 102.978 87.5919 100.578 86.8127 98.2112C86.0335 95.8445 85.2882 93.4778 84.5767 91.0943C84.509 90.9265 84.4582 90.7419 84.4074 90.574C84.221 89.953 84.0178 89.3487 83.8145 88.7445C83.6451 88.1906 83.9066 89.2142 83.6568 87.9553L83.5736 87.7036L83.4903 87.6196V87.5357L83.4025 87.1987L82.9167 85.7903C82.1206 81.8962 81.3414 78.0189 80.5623 74.1248C80.4606 73.6548 80.4098 73.1848 80.2573 72.7316C80.2404 72.5973 80.2235 72.4463 80.1896 72.312C79.9863 71.4895 79.8508 70.6335 79.6476 69.811C79.4782 69.2236 79.3935 68.6361 79.3088 68.0318C79.1055 67.3437 78.97 66.6219 78.8345 65.9001C78.7837 65.6148 78.7498 65.3127 79.2071 65.3462C79.3427 65.3462 79.4782 65.3798 79.5967 65.4134C83.0353 65.8834 86.4739 66.2862 89.9294 66.7058C91.5725 66.9072 91.6402 66.8905 91.5725 68.5018C91.437 71.4224 91.3523 74.3598 91.1152 77.2803C91.0305 78.4217 91.0304 79.5631 90.9627 80.7045C90.878 82.3494 90.7425 83.9943 90.7425 85.6392C90.7425 86.831 90.8949 86.9485 92.0637 86.8478C92.3686 86.8142 92.6904 86.831 92.9953 86.7974C95.0111 86.6967 97.0268 86.5456 99.0425 86.3946C99.6862 86.3442 100.33 86.3274 100.974 86.2939C101.058 86.2939 101.143 86.2771 101.228 86.2771C101.414 86.2435 101.6 86.1764 101.804 86.1596C101.871 86.1428 101.939 86.1092 101.973 86.0421C101.99 85.9414 101.99 85.8239 102.007 85.7232C102.142 85.3875 101.956 85.0182 102.142 84.6993C102.159 84.3636 102.176 84.0447 102.176 83.709C102.312 83.3733 102.125 83.004 102.312 82.6851C102.329 82.3494 102.346 82.0305 102.346 81.6948C102.481 81.3591 102.295 80.9898 102.481 80.6709C102.498 80.3352 102.515 80.0163 102.515 79.6806C102.651 79.3449 102.464 78.9756 102.65 78.6567C102.667 78.321 102.684 78.0021 102.684 77.6664C102.82 77.3307 102.634 76.9614 102.82 76.6425C102.837 76.3068 102.854 75.9879 102.854 75.6522C102.989 75.3165 102.803 74.9472 102.989 74.6283C103.006 74.2926 103.023 73.9737 103.023 73.638C103.209 73.3191 103.023 72.9498 103.209 72.6309Z" fill="#6DB5DE"/>
<path d="M89.2358 105.205C86.8983 105.541 84.5776 105.91 82.2401 106.179C79.2758 106.515 77.277 108.361 76.9552 111.248C76.8366 112.389 77.1585 113.514 77.3109 114.639C78.0054 119.607 78.7168 124.575 79.4283 129.527C79.5638 130.467 79.6654 131.407 79.8179 132.347C80.3938 135.771 83.1379 137.533 86.7628 136.979C90.6756 136.392 94.6055 135.888 98.5353 135.351C100.043 135.133 101.55 134.898 103.075 134.697C104.481 134.495 105.904 134.344 107.31 134.159C108.715 133.958 110.121 133.74 111.527 133.538C112.882 133.337 114.238 133.152 115.593 132.968C117.083 132.75 118.574 132.615 120.048 132.38C120.945 132.246 121.826 132.128 122.639 131.726C124.57 130.752 125.587 129.208 125.62 127.043C125.637 125.666 125.332 124.34 125.146 122.997C124.943 121.571 124.807 120.144 124.621 118.717C124.435 117.375 124.198 116.049 124.011 114.706C123.808 113.279 123.689 111.835 123.401 110.426C122.961 108.176 123.198 105.759 121.877 103.695C120.844 102.1 118.591 101.143 116.66 101.446C113.848 101.882 111.019 102.251 108.207 102.637C107.75 102.704 107.716 102.402 107.665 102.033C107.547 100.875 107.343 99.7335 106.852 98.6593C105.853 96.5276 104.108 95.4702 101.855 95.0841C100.991 95.0505 100.89 95.1345 100.856 95.9569C100.839 96.2758 100.839 96.6115 100.991 96.9137C101.262 97.2662 101.686 97.2326 102.059 97.3501C104.227 98.0047 105.65 100.069 105.463 102.302C105.429 102.788 105.091 102.788 104.752 102.839C102.99 103.107 101.229 103.342 99.4838 103.594C97.5358 103.863 95.5879 104.165 93.623 104.4C92.7422 104.5 92.6744 104.45 92.505 103.594C92.3018 102.503 92.3018 101.429 92.6744 100.371C92.7083 100.204 92.7422 100.019 92.7083 99.851C92.4542 99.5153 92.3187 99.1461 92.4373 98.7264C92.505 98.4915 92.522 98.2397 92.3695 98.0215C92.0646 98.2061 91.9968 97.7026 91.7258 97.8201C90.2013 99.1125 89.8964 100.841 89.9472 102.704C89.9472 102.973 89.9981 103.258 90.0658 103.527C90.2861 104.299 90.1336 104.92 89.2358 105.205Z" fill="#202B6D"/>
<path d="M69.9258 92.4037C69.6378 90.0035 69.3499 87.5865 69.045 85.1862C68.4352 80.2347 67.8254 75.2831 67.1987 70.3316C66.843 70.4155 66.5042 70.5162 66.1484 70.5833C65.9452 70.6169 65.7419 70.5665 65.7081 70.3148C65.6742 70.063 65.8435 69.9791 66.0637 69.9623C66.4364 69.9287 66.7752 69.828 67.0801 69.6266C67.2833 69.2741 67.3172 68.8881 67.2664 68.502C66.8429 65.1114 66.5042 61.6873 66.1315 58.2968C66.0299 57.34 66.0129 57.3232 65.0644 57.3232C64.4546 57.3232 63.8279 57.2897 63.2181 57.3568C61.9985 57.6757 61.4564 58.3135 61.4564 59.5556C61.4395 62.2916 61.4395 65.0275 61.4564 67.7635C61.4564 69.0223 62.0662 69.7105 63.3028 69.9791C63.5568 70.0294 63.8787 69.9959 63.794 70.3651C63.7262 70.6673 63.4213 70.6337 63.1503 70.6001C61.8799 70.449 60.8128 69.3748 60.7958 68.0488C60.7619 65.1282 60.745 62.1909 60.7958 59.2535C60.8128 57.7932 62.0154 56.6854 63.506 56.7525C64.4038 56.7861 64.5731 56.5008 64.5393 55.6951C64.4715 54.0837 64.4884 52.4556 64.5393 50.8442C64.5562 50.3071 64.4038 50.1728 63.8787 50.2064C63.3536 50.2568 62.8115 50.2064 62.2695 50.2064C59.8811 50.2064 57.4758 49.6189 55.0875 50.2064C55.0705 53.6977 55.0536 57.1722 55.0197 60.6634C55.0197 61.1502 55.2907 61.0998 55.6126 61.1166C56.6628 61.2005 57.3064 61.8552 57.3911 62.9126C57.4928 63.5001 57.5097 64.0876 57.3911 64.6918C57.3234 65.6486 56.8152 66.1857 55.8666 66.3367C55.1722 66.4878 54.4607 66.4374 53.7493 66.3535C52.6991 66.0682 52.0893 65.3968 52.0724 64.4233C52.0554 63.4497 51.903 62.4426 52.8008 61.6873C53.2412 61.318 53.6985 61.0998 54.2913 61.1334C54.4268 60.9991 54.393 60.8145 54.393 60.6634C54.393 57.2897 54.393 53.9327 54.393 50.5589C54.393 50.4414 54.376 50.3407 54.3422 50.24C53.2242 50.0721 52.0893 50.2064 50.9714 50.1561C50.5648 50.1393 50.4293 50.3575 50.3616 50.6932C50.3107 50.9449 50.3107 51.1967 50.3107 51.4485C50.3107 57.9778 50.1753 64.5072 50.0906 71.0365C50.0228 76.0217 50.0397 81.0236 49.972 86.0087C49.955 87.4018 49.9889 88.7782 50.0566 90.1714C50.0736 90.7756 50.0905 91.3967 50.1075 92.0009C50.3785 92.2695 50.7173 92.2359 51.0561 92.2527C53.9187 92.4709 56.7983 92.3366 59.6609 92.4541C62.693 92.5716 65.7419 92.5884 68.7739 92.5884C69.2143 92.538 69.6039 92.6052 69.9258 92.4037Z" fill="black"/>
<path d="M50.1272 90.1159C50.1781 87.5478 50.2628 84.9797 50.2966 82.4117C50.4321 71.8875 50.5507 61.3633 50.6523 50.8224C50.6523 50.3188 50.754 50.1342 51.296 50.151C52.3123 50.1846 53.3287 50.1342 54.345 50.1174C54.4127 50.1006 54.4297 50.0839 54.4297 50.0503C54.4127 50.0167 54.3958 49.9999 54.3789 49.9999C54.0401 49.9999 53.6844 49.9328 53.3625 49.9999C51.2621 50.4195 49.6699 49.5132 48.1285 48.2543C46.9258 47.2808 45.6385 46.3912 44.2834 45.6358C42.6572 44.7127 41.5393 43.3699 40.4552 41.9096C36.9319 37.1762 33.3578 32.4764 29.8007 27.7431C29.0892 26.7864 28.3778 25.8296 27.7172 24.8393C27.3107 24.235 26.9211 23.9497 26.3113 24.5875C26.2096 24.6882 26.0911 24.7554 25.9725 24.8393C25.7862 24.8225 25.6507 24.94 25.5321 25.0407C23.7197 26.6856 21.9749 28.3977 20.1456 30.0258C19.9423 30.2105 19.7221 30.3951 19.6882 30.6972C19.2817 31.0497 19.3664 31.3686 19.6713 31.7715C23.6519 37.193 27.6664 42.581 31.5454 48.0697C34.0523 51.6281 37.3046 54.4983 40.2519 57.6371C42.725 60.2723 45.2827 62.8572 47.8574 65.3917C48.6705 66.1974 48.5011 67.1541 48.5858 68.0437C48.8907 71.8875 49.094 75.7312 49.3311 79.575C49.5513 82.9488 49.7885 86.3058 50.0087 89.6795C50.0087 89.8642 50.0934 89.9817 50.1272 90.1159Z" fill="#6DB5DE"/>
<path d="M96.522 146.469C91.1524 146.536 85.7658 146.586 80.3962 146.653C80.2268 146.653 80.0744 146.721 79.905 146.754C79.8033 147.056 79.9727 147.291 80.1082 147.526C81.4633 149.691 82.7507 151.907 84.1566 154.039C84.3599 154.408 84.597 154.777 84.8511 155.13C87.0193 158.839 89.323 162.465 91.6267 166.09C91.8299 166.376 92.0162 166.678 92.2026 166.963C92.7954 167.853 93.3036 168.793 93.9981 169.615C94.2691 169.666 94.4724 169.498 94.6926 169.363C98.6055 166.913 102.535 164.462 106.448 161.995C106.685 161.844 107.126 161.793 107.024 161.34C105.144 158.722 103.264 156.087 101.4 153.468C99.8081 151.236 98.2159 149.02 96.6406 146.788C96.5559 146.687 96.5559 146.569 96.522 146.469Z" fill="#8F3600"/>
<path d="M107.001 161.336C104.765 162.763 102.529 164.189 100.293 165.616C98.2099 166.942 96.1264 168.251 94.0429 169.561C93.179 170.467 92.7725 171.642 92.1796 172.699C92.0103 173.052 91.8409 173.421 91.6545 173.757C91.2311 174.646 90.7568 175.519 90.3333 176.392C90.2486 176.577 90.1639 176.761 90.2486 176.963C89.3 178.826 88.3684 180.672 87.4198 182.535C87.1319 184.096 87.2166 185.59 87.8941 187.067C88.199 187.722 88.4361 187.873 89.0967 187.453C94.2461 184.197 99.4125 180.974 104.579 177.752C108.187 175.486 111.795 173.203 115.403 170.937C116.555 170.215 116.555 170.182 115.572 169.242C113.37 167.16 111.185 165.062 108.915 163.048C108.255 162.477 107.713 161.823 107.001 161.336Z" fill="black"/>
<path d="M19.6845 30.757C21.8357 28.8435 23.9361 26.9133 25.9687 24.8823C25.2912 23.7745 24.4782 22.7506 23.6143 21.7938C22.1067 20.1489 21.5308 18.0508 20.7177 16.0534C20.4975 15.4995 20.2943 14.912 20.0233 14.3749C19.6676 13.6532 19.0577 13.435 18.3463 13.7035C17.6518 13.9553 17.3131 14.6267 17.5502 15.3988C17.7365 16.0366 17.9398 16.6577 18.1431 17.2955C18.1431 17.3123 18.1261 17.3458 18.0753 17.4298C16.6186 16.5402 15.1618 15.6673 13.6882 14.7777C13.6204 14.5763 13.5018 14.3917 13.2986 14.291C12.2653 13.7203 11.249 13.116 9.99552 13.2335C9.25021 13.3007 8.55576 13.4685 7.99678 14.0056C7.84433 14.4756 8.26777 14.5595 8.52185 14.7106C9.65675 15.4324 10.8425 16.087 11.9774 16.8087C12.1468 16.9262 12.4008 16.9598 12.4516 17.3291C11.3337 16.7248 10.3174 16.087 9.30105 15.4659C8.72514 15.1302 8.20001 14.677 7.5394 14.5092C7.18369 14.5092 6.98043 14.761 6.74329 14.9792C6.55696 15.1638 6.38759 15.3652 6.16739 15.5163C6.04881 15.617 5.91329 15.7009 5.89635 15.8688C6.59084 16.6241 7.55634 16.9766 8.38634 17.5473C9.08082 18.034 9.86002 18.4033 10.5206 18.9404C9.86002 18.8229 9.38574 18.3865 8.82676 18.0844C8.04758 17.6312 7.28534 17.1612 6.50616 16.708C6.2182 16.5402 5.94718 16.3052 5.57453 16.4227C4.82923 16.7752 4.50737 17.3458 4.54125 18.1683C4.57513 18.974 5.04941 19.3936 5.72696 19.7293C6.59084 20.1657 7.45471 20.6693 8.18308 21.3239C8.38634 21.4246 8.47104 21.7267 8.77593 21.6764C11.1812 23.2709 13.6374 24.7984 15.958 26.5104C16.9404 27.2322 17.6349 28.3735 18.448 29.3303C18.8884 29.817 19.278 30.287 19.6845 30.757Z" fill="#FD9993"/>
<path d="M91.7955 97.8311C91.9988 97.7472 91.8463 98.5696 92.2359 97.9989C92.5916 97.7472 92.5239 97.3611 92.5239 97.0086C92.5577 96.119 92.5069 95.2294 92.6424 94.3398C92.6763 95.3637 92.7779 96.3876 92.6255 97.4115C92.5069 98.2171 92.49 99.0228 92.5408 99.8285C92.5238 99.9292 92.5238 100.047 92.5069 100.147C92.8795 101.356 93.7942 101.809 94.8952 101.322C95.2678 100.517 94.8952 99.6271 95.1662 98.7375C95.4372 99.6607 94.9799 100.601 95.505 101.406C95.9284 101.624 96.3519 101.608 96.7753 101.457C97.2157 101.171 97.2326 100.718 97.2496 100.282C97.2835 99.7949 97.2326 99.2914 97.3173 98.6536C97.7069 99.6271 97.148 100.483 97.4528 101.306C97.8932 101.608 98.3167 101.373 98.7232 101.205C100.231 100.601 101.399 98.4521 101.078 96.9415C101.078 96.5554 101.111 96.1694 101.061 95.8001C100.959 95.1455 101.298 95.0112 101.84 95.0448C101.654 94.8266 101.247 95.1119 101.111 94.7594C101.281 94.0377 101.044 93.2824 101.247 92.5606C101.264 92.1242 101.281 91.6878 101.281 91.2514C101.332 91.1675 101.383 91.1003 101.416 90.9996C101.467 90.8653 101.467 90.731 101.484 90.58C101.433 89.64 101.586 88.7001 101.654 87.7601C101.654 87.5587 101.67 87.374 101.654 87.1726C101.62 86.7866 101.704 86.3669 101.416 86.0312C98.6385 86.0984 95.8776 86.3502 93.1167 86.5684C92.9304 86.7698 92.9304 86.988 93.0489 87.223C93.0659 87.2733 93.0489 87.3237 93.032 87.374C93.032 87.4412 93.032 87.4915 93.032 87.5587C93.0151 87.609 92.9812 87.6594 92.9642 87.7097C92.6255 88.6833 92.3206 89.6568 91.9141 90.5968C91.8633 90.7646 91.7785 90.9325 91.7277 91.1003C90.8639 93.0138 90.4913 94.9776 91.3212 97.0086C91.4398 97.3611 91.5076 97.6632 91.7955 97.8311Z" fill="#FD9993"/>
<path d="M62.6268 37.483C62.7454 37.483 62.8809 37.483 62.9995 37.4662C63.7279 37.1641 63.2874 36.5095 63.423 36.0227C63.406 35.3345 63.4738 34.6296 63.3383 33.9414C62.7793 30.8865 60.3739 29.208 57.0537 29.5437C56.7997 29.6109 56.5456 29.6612 56.2915 29.7284C56.2068 29.7619 56.139 29.8123 56.0713 29.8626C55.3767 29.5941 55.0549 28.9395 54.5637 28.4695C53.1746 27.0931 49.7529 26.3042 48.2453 28.1674C47.6693 28.8723 47.3814 29.678 47.2459 30.5508C47.1612 30.8362 47.1612 31.1047 47.2459 31.3901C47.3814 32.414 47.8896 33.27 48.5163 34.0757C48.7874 34.4953 49.2278 34.4785 49.6513 34.4785C51.9211 34.5121 54.191 34.6967 56.4609 34.6631C58.4428 34.6296 60.069 35.5695 61.5088 36.862C61.8307 37.1473 62.0678 37.5837 62.6268 37.483Z" fill="black"/>
<path d="M62.6211 37.4855C61.8588 36.8644 61.1643 36.1595 60.3174 35.6391C59.03 34.8334 57.641 34.3467 56.0996 34.397C53.8975 34.4642 51.7123 34.2795 49.5102 34.2124C49.1715 34.1956 48.8496 34.1285 48.5108 34.0781C48.477 34.3635 48.46 34.6488 48.4261 34.9342C48.2906 35.2531 48.477 35.6223 48.2906 35.958C48.2906 36.4112 48.3076 36.8476 48.3076 37.3008C48.8835 37.7037 48.8835 37.7037 48.2059 38.2911C48.2568 38.6268 48.0874 38.9793 48.3245 39.2814C48.7141 39.2982 49.0868 39.2982 49.4764 39.315C50.0354 39.4661 50.6282 39.2479 51.1703 39.4493C51.814 39.3654 52.4068 39.6171 53.0336 39.6507C53.3046 39.785 53.6264 39.6004 53.8805 39.785C54.7105 39.8018 55.5406 39.8857 56.3536 39.8018C58.6404 39.5668 60.5715 38.3583 62.6211 37.4855Z" fill="#FD9993"/>
<path d="M55.1387 50.1754C57.239 50.2425 59.3562 50.2929 61.4565 50.36C61.7444 50.36 62.0832 50.4775 62.3203 50.1922C62.0493 49.1179 62.2356 48.0269 62.2018 46.9527C62.1679 46.0127 62.2017 45.056 62.1848 44.116C62.1848 43.9314 62.2695 43.6964 62.0662 43.5789C61.8461 43.4614 61.7275 43.6964 61.575 43.8139C60.3386 44.7706 59.136 45.7609 57.527 46.0631C57.2221 46.1134 56.9341 46.3148 56.6462 46.2981C55.5622 46.2309 55.4944 46.852 55.5622 47.6576C55.613 48.2451 55.5453 48.8326 55.5791 49.4033C55.5961 49.7725 55.4775 50.0243 55.1387 50.1754Z" fill="#FD9993"/>
<path d="M63.3207 42.3339C65.1332 41.1422 65.3195 40.1519 64.0321 38.4902C63.9813 38.3727 63.8966 38.272 63.778 38.2048C63.6764 38.1209 63.5578 38.0538 63.4393 38.0034C63.3207 37.9531 63.1852 37.9027 63.0497 37.9699C61.5929 38.5909 60.1361 39.2287 58.6624 39.8162C58.0696 40.0512 57.8663 40.2862 58.0527 40.9744C58.3237 42.0318 58.7302 43.0221 59.1367 44.0124C59.34 44.4824 59.5602 44.5999 60.0007 44.2138C60.4749 43.7942 61.0339 43.4417 61.5252 43.0221C61.9148 42.6864 62.3382 42.485 62.8803 42.5018C63.0836 42.6361 63.2191 42.5186 63.3207 42.3339Z" fill="#FD9994"/>
<path d="M63.2338 57.3347C63.9113 57.3347 64.5719 57.3514 65.2495 57.3514C65.6221 57.3514 65.8084 57.4354 65.8592 57.8382C66.2657 61.7659 66.6723 65.6936 67.0957 69.6212C67.824 69.1513 68.0781 68.4631 68.0781 67.6406C68.0612 65.0725 68.0781 62.5212 68.0781 59.9531C68.0781 58.1739 67.553 57.4857 65.8084 57.2675C64.9615 57.15 64.0807 57.0661 63.2338 57.3347Z" fill="#6DB5DE"/>
<path d="M53.6968 61.7222C52.7482 62.3936 52.3587 64.0553 52.9346 65.0456C53.1548 65.4317 53.5105 65.7002 53.934 65.7338C54.5776 65.7842 55.2213 65.7506 55.8819 65.717C56.0682 65.7002 56.2884 65.6331 56.407 65.4988C57.237 64.6932 56.8135 63.6861 56.8474 62.7461C56.8644 62.1586 56.407 61.8901 55.8988 61.7222C55.1705 61.6551 54.4421 61.6551 53.6968 61.7222Z" fill="#010101"/>
<path d="M54.3794 50.0391C54.3964 50.0894 54.3795 50.123 54.3456 50.1566C54.5151 50.6433 54.4303 51.1469 54.4303 51.6504C54.4473 54.5039 54.4303 57.3405 54.4303 60.194C54.4303 60.4961 54.3795 60.7982 54.3625 61.1003C54.6337 60.9325 54.5489 60.6639 54.5489 60.4122C54.5489 57.1894 54.5489 53.9667 54.5489 50.744C54.5489 50.4923 54.6337 50.2069 54.3794 50.0391Z" fill="#FCFCFC"/>
<path d="M48.2793 38.1581C48.5673 38.3428 48.8722 38.3428 49.0924 38.0574C49.211 37.9064 49.211 37.6882 49.1094 37.5035C48.923 37.151 48.6012 37.235 48.3132 37.3021C48.2116 37.5035 48.093 37.7049 48.1269 37.9399C48.1777 38.0071 48.1946 38.1078 48.2793 38.1581Z" fill="#0A0808"/>
<path d="M65.5246 54.5497C65.5246 54.0294 65.5077 53.509 65.2368 53.0391C65.2368 54.0965 65.2368 55.1372 65.2029 56.1946C65.2029 56.5639 65.2537 56.7989 65.7109 56.6814C65.7109 56.631 65.694 56.5975 65.6771 56.5471C65.4569 55.8925 65.4061 55.2379 65.5246 54.5497Z" fill="#212628"/>
<path d="M14.8071 9.9375C14.8071 10.7767 14.8071 11.5992 14.8071 12.4385C15.0278 11.616 15.0278 10.7767 14.8071 9.9375Z" fill="#FCFCFC"/>
<path d="M53.7017 61.7183C54.43 61.7183 55.1584 61.7183 55.8867 61.7183C55.1753 61.5001 54.447 61.5001 53.7017 61.7183Z" fill="#FCFCFC"/>
<path d="M53.8006 66.3058C54.512 66.4569 55.2065 66.4737 55.918 66.2891C55.2065 66.2891 54.512 66.3058 53.8006 66.3058Z" fill="#FCFCFC"/>
<path d="M57.4399 64.6464C57.5752 64.0589 57.5583 63.4714 57.4399 62.8672C57.4399 63.4714 57.4399 64.0589 57.4399 64.6464Z" fill="#FCFCFC"/>
<path d="M51.1758 39.4365C50.6338 39.1847 50.0411 39.319 49.4822 39.3022C50.0241 39.5876 50.6169 39.3862 51.1758 39.4365Z" fill="#FCFCFC"/>
<path d="M48.2773 38.1557C48.2264 38.0886 48.1756 38.0046 48.1248 37.9375C48.2095 38.3907 47.9045 38.8942 48.3281 39.2803C48.2095 38.911 48.2603 38.525 48.2773 38.1557Z" fill="#FCFCFC"/>
<path d="M102.79 78.6719C102.586 78.9908 102.654 79.3433 102.654 79.6958C102.908 79.3768 102.756 79.0076 102.79 78.6719Z" fill="#FCFCFC"/>
<path d="M103.466 70.6094C103.262 70.9283 103.33 71.2808 103.33 71.6333C103.584 71.3143 103.432 70.9451 103.466 70.6094Z" fill="#FCFCFC"/>
<path d="M103.805 66.5859C103.602 66.9049 103.67 67.2573 103.67 67.6098C103.924 67.3077 103.771 66.9384 103.805 66.5859Z" fill="#FCFCFC"/>
<path d="M103.973 64.5703C103.77 64.8892 103.838 65.2417 103.838 65.5942C104.092 65.2921 103.939 64.9228 103.973 64.5703Z" fill="#FCFCFC"/>
<path d="M103.633 68.6016C103.43 68.9205 103.498 69.273 103.498 69.6254C103.752 69.3065 103.6 68.954 103.633 68.6016Z" fill="#FCFCFC"/>
<path d="M103.126 74.6484C102.922 74.9674 102.99 75.3198 102.99 75.6723C103.244 75.3534 103.092 74.9841 103.126 74.6484Z" fill="#FCFCFC"/>
<path d="M102.954 76.6562C102.751 76.9752 102.819 77.3276 102.819 77.6801C103.072 77.3612 102.92 76.9919 102.954 76.6562Z" fill="#FCFCFC"/>
<path d="M48.2941 35.9536C48.5138 35.6347 48.4293 35.2822 48.4293 34.9297C48.159 35.2486 48.3279 35.6179 48.2941 35.9536Z" fill="#FCFCFC"/>
<path d="M104.141 62.5547C103.938 62.8736 104.006 63.2261 104.006 63.5786C104.26 63.2764 104.107 62.9072 104.141 62.5547Z" fill="#FCFCFC"/>
<path d="M103.298 72.6328C103.094 72.9517 103.162 73.3042 103.162 73.6567C103.416 73.3378 103.264 72.9685 103.298 72.6328Z" fill="#FCFCFC"/>
<path d="M53.8867 39.7778C53.6326 39.5764 53.3277 39.6436 53.0398 39.6436C53.2938 39.8785 53.5988 39.7443 53.8867 39.7778Z" fill="#FCFCFC"/>
<path d="M10.3207 6.09351C10.6088 6.26136 10.9138 6.211 11.2188 6.211C10.9477 5.97602 10.6088 6.11029 10.3207 6.09351Z" fill="#FCFCFC"/>
<path d="M47.2461 31.4017C47.2461 31.1164 47.2461 30.8478 47.2461 30.5625C47.0258 30.8311 47.0258 31.1164 47.2461 31.4017Z" fill="#FCFCFC"/>
<path d="M69.9282 92.3985C67.8786 92.1971 65.829 92.3146 63.7624 92.2642C59.2398 92.1467 54.7001 92.046 50.1775 91.9453C49.7709 98.0215 49.3644 104.098 48.9409 110.174C48.5344 115.998 48.094 121.823 47.6705 127.63C47.247 133.337 46.8405 139.044 46.417 144.768C46.3831 145.271 46.3154 145.758 46.2476 146.261C46.146 146.396 46.0613 146.513 46.0443 146.681C45.7564 150.038 45.5531 153.395 45.299 156.752C45.0958 159.438 44.9264 162.14 44.7231 164.826C44.6892 164.977 44.6723 165.128 44.6723 165.279C44.5368 167.914 44.3844 170.549 44.1641 173.184C44.1472 173.47 44.1302 173.738 44.1811 174.024C44.198 174.192 44.2658 174.326 44.3674 174.46C44.4352 174.561 44.5199 174.645 44.5876 174.745C44.8925 174.947 45.2313 174.896 45.57 174.896C49.8725 174.896 54.1581 174.896 58.4606 174.896C58.9349 174.896 59.4261 174.997 59.8326 174.628C59.8665 174.578 59.8834 174.527 59.9173 174.477C60.0359 174.309 60.1714 174.158 60.2053 173.94C60.273 171.053 60.4763 168.183 60.5779 165.295C60.5779 165.144 60.5779 164.977 60.5779 164.826C60.7981 160.847 60.9675 156.869 61.1369 152.891C61.2216 150.827 61.3402 148.779 61.4249 146.715C61.4249 146.563 61.4249 146.396 61.4249 146.245C61.4249 145.59 61.5095 144.919 61.5773 144.264C61.6281 143.861 61.6451 143.425 61.374 143.072C61.4926 140.068 61.6112 137.046 61.7467 134.042C61.933 129.829 62.1532 125.616 62.3565 121.403C62.6445 115.377 62.9155 109.351 63.1865 103.326C63.2034 102.889 63.2034 102.453 63.8302 102.503C64.3553 102.537 64.9312 102.167 65.1684 103.124C67.4721 112.289 69.8435 121.453 72.1811 130.601C72.6554 132.431 73.1296 134.277 73.5701 136.123C73.9258 137.6 74.8235 138.759 75.7891 139.933C75.6366 138.372 75.4841 136.795 75.2978 135.234C74.7049 130.081 74.129 124.911 73.5192 119.775C72.9094 114.706 72.2488 109.637 71.5882 104.584C71.1139 100.908 70.6227 97.2326 70.1484 93.5399C70.0806 93.1706 69.9959 92.7846 69.9282 92.3985Z" fill="#8F3600"/>
<path d="M59.8162 174.616C55.0903 174.616 50.3812 174.616 45.6553 174.616C45.2996 174.616 44.9269 174.566 44.5882 174.734C41.4206 176.58 38.253 178.443 35.0516 180.239C34.2724 180.676 33.5271 181.146 32.7648 181.599C30.9185 182.673 30.0885 184.369 29.8344 186.416C29.7836 186.836 29.8344 187.054 30.3764 187.054C40.4042 187.037 50.4321 187.037 60.4599 187.037C61.5779 187.037 60.7478 186.232 60.9511 185.846C60.7987 185.426 60.9511 185.023 61.0358 184.62C61.0189 183.361 60.8326 182.119 60.6801 180.877C60.6462 180.726 60.5615 180.609 60.4768 180.474C60.3074 178.846 60.1381 177.218 59.9517 175.59C59.9348 175.254 60.0025 174.919 59.8162 174.616Z" fill="black"/>
<path d="M5.79439 15.8442C5.70969 15.9953 5.64192 16.1463 5.55722 16.2974C5.5911 16.3477 5.60805 16.3981 5.60805 16.4485C6.98009 17.2541 8.35214 18.0766 9.72419 18.8823C9.89357 18.983 10.063 19.0837 10.2324 19.1844C10.4695 19.3355 10.7405 19.5537 10.9438 19.2012C11.1301 18.8823 10.7744 18.7816 10.5711 18.6473C9.38541 17.9087 8.18276 17.2038 6.98011 16.482C6.64133 16.2806 6.31948 16.0624 5.99765 15.8442C5.94683 15.7603 5.86214 15.7603 5.79439 15.8442Z" fill="#070505"/>
<path d="M91.7942 97.8225C91.574 96.8825 91.1166 96.0097 91.0658 95.0194C90.998 93.6262 91.4893 92.4009 91.9297 91.1588C91.6925 90.8567 91.3368 90.8903 90.998 90.8903C89.1517 90.8903 87.3053 90.8735 85.442 90.8903C85.1202 90.8903 84.7644 90.8399 84.5104 91.142C84.9 93.1395 85.6792 95.0194 86.2551 96.9496C87.0004 99.4506 87.8135 101.935 88.6266 104.419C88.7282 104.738 88.7113 105.174 89.2194 105.225C89.4227 105.208 89.609 105.174 89.8123 105.174C90.3713 105.174 90.5068 104.889 90.4221 104.369C90.2358 103.278 90.0156 102.187 90.2358 101.062C90.456 99.8367 90.9303 98.7289 91.7942 97.8225Z" fill="#FEFEFE"/>
<path d="M65.5221 54.5547C65.3866 55.2429 65.0819 55.9311 65.6914 56.5521C65.6237 55.8807 65.5729 55.2261 65.5221 54.5547Z" fill="#0F1214"/>
<path d="M101.315 128.003C106.346 128.003 110.259 124.075 110.242 119.04C110.225 114.072 106.245 110.194 101.163 110.211C96.1829 110.228 92.287 114.189 92.27 119.225C92.27 124.042 96.4709 128.188 101.315 128.003Z" fill="#459257"/>
<path d="M92.5562 99.8276C92.7425 99.6766 92.8103 99.4919 92.8103 99.2569C92.8611 97.5952 92.9289 95.9167 92.9628 94.255C92.9628 94.02 93.1152 93.6172 92.6748 93.6172C92.2682 93.6172 92.3359 93.9865 92.319 94.255C92.2851 95.4971 92.2682 96.756 92.2343 98.0148C92.3529 98.317 92.1835 98.6023 92.1496 98.9044C92.1327 99.2569 92.0141 99.6933 92.5562 99.8276Z" fill="#050304"/>
<path d="M8.03221 14.1404C7.64261 14.0733 7.47321 14.2244 7.50708 14.6104C8.99771 15.5 10.4714 16.4232 11.979 17.296C12.2331 17.4471 12.5887 17.9674 12.8767 17.4471C13.1308 17.0274 12.5718 16.9267 12.3178 16.7757C10.8949 15.8861 9.45507 15.03 8.03221 14.1404Z" fill="#060403"/>
<path d="M15.9057 23.2134C15.9904 23.5659 16.2106 23.6331 16.4647 23.4316C17.3286 22.7099 18.1587 21.9881 19.0057 21.2496C19.1412 21.1321 19.2089 20.981 19.1073 20.8132C19.0057 20.6453 18.8024 20.595 18.6669 20.7125C17.7691 21.4678 16.8882 22.2399 15.9904 22.9952C15.9565 23.0456 15.9396 23.1295 15.9057 23.2134Z" fill="#080505"/>
<path d="M3.79534 2.98868C3.79534 2.19979 3.7784 1.42768 3.79534 0.638795C3.81228 0.185603 3.67675 -0.0158165 3.1855 0.00096836C2.30464 0.0345381 1.44073 0.0345381 0.559868 0.00096836C0.0855596 -0.0158165 0.0008533 0.185602 0.0008533 0.605224C0.0177929 2.25014 0.0177929 3.89506 0.0008533 5.55677C0.0008533 5.97639 0.102499 6.17781 0.559868 6.16102C1.44073 6.12745 2.30464 6.12745 3.1855 6.16102C3.69369 6.17781 3.81228 5.9596 3.79534 5.50641C3.7784 4.66717 3.79534 3.82792 3.79534 2.98868Z" fill="#FEFEFE"/>
<path d="M94.8408 101.341C95.061 101.542 95.2644 101.525 95.4846 101.324C95.5016 100.468 95.5354 99.5951 95.5524 98.7391C95.5524 98.5041 95.671 98.1684 95.2982 98.1349C94.8746 98.1013 94.9255 98.4873 94.9255 98.7391C94.8747 99.6119 94.8577 100.468 94.8408 101.341Z" fill="#0B0707"/>
<path d="M96.9284 101.31C97.1485 101.545 97.3687 101.679 97.6057 101.327C97.6396 100.471 97.6734 99.5978 97.7073 98.7418C97.7242 98.5068 97.6904 98.255 97.4194 98.2215C97.0638 98.1879 97.0469 98.4732 97.0469 98.7418C96.9961 99.581 96.9622 100.437 96.9284 101.31Z" fill="#0A0606"/>
<path d="M53.7977 37.5133C53.7977 37.849 53.984 38.0672 54.3058 38.0672C54.6275 38.0839 54.8477 37.849 54.8477 37.5468C54.8477 37.2783 54.6953 37.0601 54.3904 37.0433C54.0348 37.0097 53.8485 37.1776 53.7977 37.5133Z" fill="#130C0B"/>
<path d="M46.2292 146.617C37.1499 146.617 28.0706 146.617 18.9914 146.617C16.3489 146.617 14.4687 148.413 14.4517 151.015C14.4179 155.396 14.4687 159.793 14.4179 164.174C14.4179 164.93 14.7905 164.879 15.2987 164.879C24.8014 164.879 34.3042 164.879 43.8069 164.879C44.1795 164.879 44.5353 164.896 44.9079 164.896C45.0434 163.184 45.1959 161.455 45.3314 159.743C45.6363 155.631 45.9242 151.502 46.2122 147.389C46.263 147.121 46.2461 146.869 46.2292 146.617Z" fill="#FEFEFE"/>
<path d="M23.9034 130.165C17.4666 130.165 11.0468 130.182 4.60995 130.148C3.91546 130.148 3.69522 130.316 3.7291 131.021C3.77991 132.532 3.74604 132.532 5.30443 132.532C17.9409 132.532 30.5773 132.532 43.2138 132.549C43.9761 132.549 44.2302 132.364 44.1963 131.592C44.1285 130.165 44.1793 130.165 42.7734 130.165C36.489 130.165 30.2047 130.165 23.9034 130.165Z" fill="#FEFEFE"/>
<path d="M97.958 119.812C98.6186 119.711 99.3471 119.661 100.059 119.51C100.702 119.375 100.905 119.56 100.939 120.198C100.99 121.003 101.16 121.792 101.261 122.598C101.295 122.85 101.312 123.169 101.651 123.135C102.091 123.102 101.939 122.715 101.905 122.48C101.803 121.591 101.702 120.701 101.532 119.828C101.448 119.392 101.583 119.308 101.973 119.258C102.955 119.14 103.921 118.989 104.886 118.838C105.106 118.805 105.394 118.805 105.361 118.486C105.327 118.116 105.022 118.2 104.785 118.234C103.887 118.351 103.006 118.469 102.108 118.603C101.566 118.687 101.278 118.57 101.244 117.949C101.193 117.143 101.024 116.354 100.922 115.548C100.889 115.28 100.889 114.894 100.499 114.961C100.109 115.028 100.245 115.397 100.279 115.666C100.38 116.488 100.465 117.328 100.651 118.15C100.787 118.704 100.567 118.821 100.092 118.889C99.3471 118.972 98.5848 119.073 97.8394 119.191C97.5684 119.241 97.0941 119.14 97.128 119.577C97.1957 120.047 97.6192 119.795 97.958 119.812Z" fill="#FDFDFD"/>
</svg>
