<svg width="337" height="366" viewBox="0 0 337 366" fill="none" xmlns="http://www.w3.org/2000/svg">
<path d="M174.17 72.7957C174.02 70.9449 173.843 69.0722 173.693 67.2214C173.443 64.3249 175.292 62.1374 178.284 61.8537C196.921 60.0873 215.533 58.3232 234.17 56.5567C237.113 56.2778 239.286 58.0594 239.583 60.9269C239.908 64.0863 240.231 67.2213 240.53 70.383C240.649 70.568 240.771 70.7774 240.817 70.9939C241.072 72.6139 241.178 74.2725 241.31 75.9287C241.331 76.1476 241.354 76.3908 241.374 76.6097C242.1 84.0008 242.7 91.4039 243.529 98.8099C243.861 101.772 241.853 104.417 238.492 104.833C235.531 105.188 232.559 105.42 229.591 105.702C226.12 106.031 222.654 106.408 219.176 106.664C219.025 106.678 218.849 106.695 218.698 106.709C216.99 106.896 215.257 107.085 213.542 107.198C206.754 107.866 199.988 108.507 193.195 109.127C191.912 109.248 190.991 109.704 190.219 110.66C187.471 114.062 184.807 117.554 181.949 120.867C181.559 121.297 181.223 121.771 180.722 122.112C179.84 122.711 179.005 122.471 178.586 121.53C178.424 121.152 178.359 120.741 178.322 120.352C177.241 108.946 176.133 97.5172 175.077 86.1083C174.623 82.1268 174.295 78.1334 173.917 74.1448C173.869 73.634 173.853 73.1939 174.17 72.7957Z" fill="#E74F4F"/>
<path d="M174.173 72.794C174.595 77.2448 175.019 81.7198 175.441 86.1705C175.025 86.6026 174.44 86.5845 173.911 86.6345C162.568 87.7097 151.228 88.8091 139.882 89.86C135.984 90.2295 132.438 87.6209 131.804 83.8773C131.636 82.9117 131.274 82.5778 130.243 82.6756C126.45 83.0842 122.62 83.3736 118.827 83.7822C114.684 84.2485 110.939 87.8427 110.069 92.0478C109.928 92.6992 109.887 93.3411 109.771 93.9901C109.643 94.5175 109.719 95.0502 109.767 95.561C113.797 138.074 117.801 180.589 121.879 223.073C122.995 234.845 124.163 246.636 125.254 258.409C125.908 265.586 126.611 272.734 127.266 279.911C127.319 280.471 127.324 281.059 127.526 281.58C128.37 284.862 130.185 287.414 133.376 288.952C135.133 289.816 136.997 290.204 138.984 290.015C142.53 289.679 146.101 289.341 149.648 289.005C149.799 288.99 149.947 288.952 150.098 288.937C157.113 288.248 164.103 287.561 171.124 286.944C172.581 286.782 174.037 286.619 175.501 286.53C182.964 285.749 190.463 285.087 197.933 284.379C205.128 283.721 212.326 283.088 219.538 282.331C224.94 281.77 229.121 276.613 228.657 271.185C228.094 264.71 227.431 258.246 226.815 251.752C226.769 251.266 226.723 250.779 226.702 250.29C225.995 243.904 225.464 237.5 224.858 231.104C224.326 225.485 223.741 219.848 223.283 214.223C223.134 213.451 223.113 212.693 223.039 211.914C220.879 189.126 218.722 166.361 216.562 143.573C216.488 142.794 216.391 142.043 216.393 141.257C216.404 140.839 216.493 140.438 216.794 140.139C218.065 138.817 219.47 137.579 220.825 136.346C221.2 136.016 221.673 135.922 221.909 136.538C222.067 137.137 222.1 137.747 222.158 138.355C225.24 170.872 228.445 203.353 231.326 235.889C232.371 247.716 233.539 259.507 234.534 271.339C234.552 271.534 234.573 271.753 234.541 271.952C234.598 280.045 228.123 287.235 219.773 288.026C192.992 290.614 166.204 293.128 139.416 295.643C136.699 295.9 134.065 295.414 131.576 294.325C131.048 294.105 130.499 293.936 129.97 293.716C129.659 293.378 129.117 293.552 128.783 293.24C125.386 291.132 123.248 288.12 122.013 284.458C121.619 283.244 121.426 282.011 121.306 280.746C115.469 219.166 109.634 157.609 103.797 96.0287C103.362 91.432 104.623 87.3371 107.577 83.6952C107.876 83.3723 108.203 83.0714 108.617 82.885C110.778 81.0605 113.059 79.421 115.85 78.6166C117.062 78.2809 118.281 78.0181 119.538 77.8989C137.704 76.2507 155.939 74.5224 174.173 72.794Z" fill="black"/>
<path d="M109.454 93.8965C109.606 88.5325 113.551 84.1096 119.013 83.371C123.024 82.8436 127.034 82.5862 131.054 82.1561C131.733 82.0917 131.955 82.2916 131.964 82.9287C132.121 86.7175 135.811 90.0486 140.784 89.5036C152.315 88.2635 163.893 87.2641 175.438 86.1699C176.196 93.9016 176.927 101.611 177.685 109.343C178.042 113.113 178.397 116.858 178.755 120.628C178.812 121.236 178.847 121.871 179.629 122.091C180.409 122.287 180.765 121.762 181.151 121.284C184.286 117.404 187.42 113.525 190.552 109.62C190.869 109.222 191.169 108.899 191.747 108.844C198.993 108.182 206.214 107.522 213.457 106.836C213.789 107.123 213.904 107.53 213.943 107.943C214.468 113.488 215.094 119.024 215.469 124.583C215.472 124.878 215.424 125.177 215.216 125.393C213.763 126.929 212.086 128.242 210.433 129.551C209.915 129.969 209.562 129.732 209.603 129.09C209.634 128.351 209.796 127.649 209.905 126.927C210.124 125.483 209.581 124.577 208.449 124.414C207.5 124.308 206.874 124.932 206.573 126.31C206.081 128.614 205.642 130.938 205.149 133.242C205.01 133.918 204.819 134.574 204.472 135.196C201.775 139.943 199.211 144.75 196.567 149.516C196.439 149.773 196.283 150.009 196.048 150.203C195.902 150.266 195.705 150.334 195.57 150.248C194.639 149.797 194.203 150.28 193.815 151.004C192.835 152.716 191.748 154.365 190.743 156.08C189.957 157.43 189.633 157.486 188.285 156.656C183.145 153.561 178.391 149.987 173.819 146.2C173.435 145.892 173.096 145.532 172.755 145.147C170.411 142.375 167.34 141.292 163.732 141.512C161.891 141.637 160.055 141.811 158.201 142.06C157.368 142.115 156.529 142.366 155.715 142.075C154.836 140.563 155.031 138.876 155.003 137.235C154.995 136.622 155.665 136.46 156.182 136.289C157.341 135.933 158.495 135.53 159.59 135.033C162.703 133.609 164.204 131.234 164.094 127.932C164.084 127.564 164.05 127.2 164.143 126.847C164.28 126.417 164.641 126.211 165 125.981C166.458 125.033 167.173 123.738 166.861 122.05C166.546 120.337 165.393 119.416 163.703 118.987C163.495 118.933 163.287 118.879 163.101 118.799C162.189 118.272 162.174 117.316 161.968 116.477C161.55 114.75 161.181 112.993 159.57 111.796C158.504 110.989 157.326 110.61 155.963 110.69C151.472 110.969 147.053 111.731 142.585 112.253C140.402 112.509 138.949 114.045 138.772 116.197C138.593 118.324 138.917 120.404 139.291 122.479C139.31 125.348 139.431 128.232 139.373 131.109C139.309 133.373 138.7 135.516 137.677 137.576C137.506 137.912 137.332 138.223 137.214 138.577C136.595 140.084 137.346 141.043 139.013 140.689C141.153 140.241 143.354 140.179 145.513 139.926C146.041 139.876 146.615 139.772 147.125 140.067C147.679 140.825 147.609 141.69 147.536 142.531C147.497 142.658 147.434 142.787 147.342 142.893C146.549 143.361 145.646 143.201 144.804 143.428C144.299 143.452 143.826 143.816 143.307 143.693C138.983 143.857 134.59 143.832 130.826 146.422C127.49 148.701 125.505 151.589 126.128 155.751C126.688 159.526 127.3 163.296 127.886 167.068C128.389 170.235 128.867 173.405 129.37 176.572C129.949 180.271 130.475 183.952 131.13 187.644C131.394 189.091 131.457 190.558 131.794 191.974C132.466 194.781 134.228 196.504 137.176 196.813C139.893 197.095 139.714 197.088 139.577 199.653C139.182 206.733 138.838 213.809 138.39 220.869C138.35 221.511 138.389 222.195 137.745 222.624C137.285 222.864 136.78 222.887 136.279 222.959C132.054 223.36 127.831 223.784 123.603 224.161C121.842 224.327 121.733 224.24 121.576 222.586C117.556 180.17 113.533 137.73 109.513 95.3143C109.464 94.8035 109.345 94.3486 109.454 93.8965Z" fill="#ECE9E9"/>
<path d="M215.178 124.981C214.604 118.925 214.005 112.872 213.431 106.816C215.212 106.598 216.991 106.356 218.793 106.357C219.339 111.311 219.683 116.284 220.428 121.195C220.419 121.638 220.25 121.997 219.807 122.138C218.428 122.587 217.402 123.543 216.372 124.451C216.045 124.752 215.723 125.101 215.178 124.981Z" fill="black"/>
<path d="M206.854 71.7087C200.44 72.3166 194.027 72.9245 187.638 73.53C187.337 73.5586 187.06 73.5849 186.758 73.6135C186.456 73.6421 186.125 73.6244 186.067 73.2863C186.008 72.9239 186.328 72.8199 186.629 72.7913C186.881 72.7675 187.132 72.7436 187.384 72.7198C200.362 71.4897 213.365 70.2572 226.343 69.0271C226.846 68.9794 227.676 68.6309 227.765 69.3095C227.862 70.061 226.949 69.804 226.499 69.8712C219.932 70.4691 213.393 71.0889 206.854 71.7087Z" fill="#FEFEFE"/>
<path d="M204.427 87.8676C199.271 88.3563 194.141 88.8427 188.985 89.3314C188.658 89.3624 188.306 89.3957 187.976 89.4024C187.748 89.3995 187.558 89.2703 187.537 89.0514C187.516 88.8325 187.651 88.648 187.875 88.6022C188.2 88.5469 188.552 88.5135 188.879 88.4825C199.216 87.5027 209.528 86.5253 219.867 85.5699C220.345 85.5246 221.172 85.1517 221.264 85.8546C221.336 86.6085 220.449 86.3491 219.996 86.392C214.792 86.9098 209.608 87.3766 204.427 87.8676Z" fill="#FEFEFE"/>
<path d="M197.951 80.5774C194.605 80.8944 191.26 81.2115 187.89 81.5309C187.463 81.5715 186.827 81.828 186.788 81.1446C186.751 80.4856 187.425 80.6425 187.853 80.6019C194.543 79.9678 201.258 79.3313 207.948 78.6972C208.376 78.6567 209.037 78.3977 209.097 79.0301C209.193 79.7817 208.416 79.61 207.988 79.6505C204.641 79.9432 201.296 80.2603 197.951 80.5774Z" fill="#FDF7F7"/>
<path d="M193.989 96.8779C192.404 97.0281 190.82 97.1782 189.235 97.3284C188.858 97.3642 188.387 97.4825 188.316 96.9984C188.208 96.3952 188.768 96.4157 189.171 96.3775C192.44 96.0676 195.685 95.7601 198.954 95.4502C199.332 95.4144 199.805 95.3205 199.901 95.8021C200.009 96.4054 199.447 96.3606 199.044 96.3987C197.334 96.5608 195.649 96.7205 193.989 96.8779Z" fill="#FDF6F6"/>
<path d="M109.457 93.8989C109.515 94.5069 109.597 95.1126 109.655 95.7206C113.657 137.942 117.657 180.139 121.659 222.36C121.827 224.135 121.582 223.962 123.393 223.79C128.247 223.33 133.099 222.846 137.951 222.362C138.456 221.798 139.171 221.853 139.825 221.791C145.107 221.291 150.361 220.768 155.645 220.292C156.626 220.199 157.44 219.95 158.025 219.158C158.757 219.923 159.649 219.961 160.65 219.817C161.727 219.666 162.811 219.588 163.895 219.51C166.455 219.218 169.021 218.975 171.616 218.778C179.232 218.007 186.825 217.263 194.453 216.613C202.193 215.806 209.944 215.121 217.663 214.364C219.096 214.229 220.505 214.095 221.938 213.959C222.517 213.904 223.118 213.823 223.637 214.215C224.624 224.355 225.585 234.497 226.547 244.638C226.731 246.584 226.863 248.51 227.022 250.458C226.675 250.81 226.224 250.877 225.746 250.923C219.006 251.562 212.245 252.252 205.498 252.817C199.569 253.453 193.654 253.965 187.718 254.527C186.762 254.618 185.807 254.708 184.858 254.872C179.736 255.186 174.619 255.818 169.509 256.253C168.931 256.308 168.352 256.363 167.771 256.393C161.893 257.024 155.978 257.536 150.092 258.094C149.791 258.122 149.514 258.148 149.212 258.177C147.401 258.349 147.356 258.402 147.529 260.226C148.384 269.249 149.239 278.272 150.092 287.271C150.159 287.976 150.384 288.74 149.835 289.381L149.76 289.388L149.73 289.342C149.025 288.869 149.132 288.123 149.07 287.466C148.208 278.64 147.399 269.833 146.562 261.005C146.527 260.64 146.493 260.275 146.458 259.91C146.281 258.577 146.169 258.465 144.786 258.597C138.973 259.123 133.164 259.674 127.331 260.251C125.897 260.387 125.783 260.52 125.917 261.931C126.459 267.916 127.051 273.897 127.593 279.882C127.655 280.539 127.875 281.254 127.35 281.868C126.952 281.415 127.052 280.866 127.003 280.355C126.298 272.913 125.643 265.466 124.935 258C119.783 203.912 114.659 149.847 109.506 95.7592C109.351 95.1851 109.137 94.5427 109.457 93.8989Z" fill="#31B58D"/>
<path d="M223.591 214.244C213.883 215.164 204.149 216.087 194.441 217.007C193.926 216.663 193.747 216.116 193.569 215.568C192.031 211.125 190.443 206.687 188.882 202.27C188.706 201.747 188.477 201.205 188.778 200.636C189.262 200.124 189.898 200.137 190.527 200.078C193.115 199.808 195.708 199.587 198.299 199.341C200.686 199.09 201.394 198.263 201.163 195.83C200.43 187.826 199.646 179.827 198.888 171.826C198.824 171.145 198.734 170.466 198.77 169.776C199.333 167.955 200.59 166.487 201.606 164.893C203.111 162.567 204.646 160.286 206.151 157.96C206.505 157.411 206.733 156.874 206.573 156.251C206.648 155.704 206.963 155.281 207.224 154.815C209.535 150.817 211.9 146.863 214.237 142.862C214.759 141.954 215.241 140.877 216.606 140.822C216.659 141.111 216.71 141.376 216.737 141.668C219.008 165.624 221.279 189.58 223.549 213.537C223.57 213.755 223.593 213.999 223.591 214.244Z" fill="#ECE9E9"/>
<path d="M205.448 252.574C212.639 251.868 219.832 251.186 227.023 250.48C227.703 257.655 228.532 264.791 229.036 271.982C229.389 277.053 225.071 282.1 219.902 282.713C212.672 283.545 205.417 284.11 198.174 284.797C197.787 284.195 198.111 283.6 198.234 283.024C200.372 274.257 202.33 265.458 204.521 256.711C204.739 255.807 204.906 254.883 205.019 253.94C205.049 253.446 205.053 252.955 205.448 252.574Z" fill="#ECE9E9"/>
<path d="M205.448 252.574C205.25 256.372 203.993 259.976 203.15 263.663C201.534 270.712 199.815 277.746 198.147 284.775C190.576 285.493 183.006 286.21 175.435 286.928C175.058 286.424 175.339 285.906 175.494 285.401C178.395 275.58 181.191 265.72 184.064 255.877C184.196 255.398 184.303 254.922 184.783 254.631C184.93 254.568 185.071 254.457 185.222 254.442C191.965 253.828 198.705 253.189 205.448 252.574Z" fill="#8F3600"/>
<path d="M149.786 289.407C148.844 279.46 147.949 269.483 146.956 259.541C146.833 258.252 147.213 257.97 148.422 257.88C154.868 257.343 161.306 256.733 167.77 256.12C168.214 256.52 168.215 257.059 168.288 257.568C169.258 264.052 169.75 270.582 170.416 277.071C170.708 279.89 171.303 282.68 171.447 285.538C171.479 286.148 171.612 286.749 171.183 287.305C164.045 288.031 156.904 288.732 149.786 289.407Z" fill="#8F3600"/>
<path d="M127.279 281.926C126.636 275.141 126.015 268.328 125.347 261.545C125.248 260.5 125.41 260.067 126.619 259.977C132.864 259.459 139.099 258.843 145.307 258.206C146.388 258.103 146.736 258.291 146.842 259.41C147.739 269.41 148.709 279.38 149.657 289.376C145.784 289.743 141.901 290.282 138.01 290.455C132.982 290.686 128.33 286.857 127.279 281.926Z" fill="#ECE9E9"/>
<path d="M216.631 140.816C215.493 141.39 214.876 142.381 214.289 143.418C211.777 147.705 209.24 151.995 206.705 156.309C206.166 156.507 205.729 156.18 205.301 155.951C202.43 154.309 199.582 152.64 196.711 150.998C196.363 150.811 195.917 150.657 195.919 150.141C198.145 146.053 200.262 141.877 202.673 137.869C204.318 135.137 205.159 132.235 205.68 129.167C205.879 128.044 206.104 126.943 206.38 125.837C206.688 124.532 207.588 123.857 208.649 124.076C209.838 124.307 210.461 125.254 210.277 126.523C210.143 127.517 209.983 128.514 209.779 129.834C211.721 128.104 213.478 126.563 215.21 125.025C216.846 123.814 218.192 122.214 220.293 121.623C220.368 121.615 220.419 121.611 220.467 121.582C221.674 120.927 222.806 121.36 223.917 121.843C224.38 122.438 223.797 122.714 223.47 123.015C222.063 124.228 220.655 125.441 219.22 126.632C218.866 126.911 218.484 127.168 218.327 127.649C219.526 126.922 220.55 125.942 221.633 125.054C222.694 124.193 223.587 123.175 224.846 122.541C225.93 122.732 226.747 123.318 227.361 124.167C227.361 124.707 226.897 124.898 226.57 125.199C224.884 126.684 223.138 128.077 221.591 129.696C222.249 129.412 222.766 128.971 223.28 128.505C224.498 127.433 225.743 126.382 226.991 125.356C227.345 125.077 227.67 124.752 228.17 124.68C230.421 124.859 231.221 127.949 229.624 129.302C227.153 131.353 224.793 133.49 222.517 135.718C222.33 135.883 222.115 136.026 221.864 136.05C221.793 136.106 221.722 136.162 221.676 136.215C219.83 137.617 218.173 139.148 216.631 140.816Z" fill="#FD9993"/>
<path d="M171.187 287.359C170.049 276.964 168.909 266.544 167.772 256.149C173.154 255.639 178.559 255.102 183.942 254.592C184.218 254.566 184.529 254.635 184.81 254.657C181.695 265.431 178.578 276.18 175.462 286.954C174.029 287.089 172.595 287.225 171.187 287.359Z" fill="#ECE9E9"/>
<path d="M158.084 219.256C158.135 220.331 157.525 220.585 156.491 220.658C150.3 221.196 144.113 221.782 137.925 222.369C138.194 217.436 138.487 212.5 138.756 207.567C138.943 204.457 139.078 201.328 139.29 198.215C139.347 197.474 139.248 197.238 138.386 197.246C135.494 197.25 133.163 196.22 131.823 193.598C131.358 192.71 131.289 191.71 131.149 190.766C130.356 185.885 129.687 180.966 128.92 176.082C127.968 170.062 126.969 164.071 126.018 158.051C125.528 155.03 125.144 152.048 127.216 149.275C129.537 146.184 132.645 144.441 136.448 143.86C138.524 143.541 140.62 143.44 142.733 143.24C143.11 143.204 143.508 143.117 143.68 143.592C144.124 143.991 144.101 144.558 144.15 145.069C144.555 149.349 144.936 153.632 145.392 157.908C145.505 159.099 145.224 159.887 144.008 160.444C142.427 161.158 141.952 162.847 142.578 164.898C143.062 166.521 144.139 167.18 146.003 167.028C149.403 166.754 150.017 166.009 149.651 162.682C149.483 161.176 148.737 160.265 147.239 159.99C146.205 159.794 145.773 159.246 145.678 158.249C145.245 153.676 144.811 149.104 144.38 144.556C144.339 144.118 144.27 143.658 144.615 143.282C145.483 142.807 146.458 142.911 147.395 142.896C148.004 143.427 148.052 144.208 148.17 144.908C149.077 150.197 150.082 155.451 151.038 160.71C151.791 164.908 152.592 169.078 153.37 173.274C153.896 176.144 154.422 179.015 154.925 181.912C154.978 182.201 154.978 182.471 154.853 182.753C154.396 183.287 153.73 183.227 153.104 183.311C151.27 183.51 149.429 183.635 147.616 184.052C146.796 184.228 146.547 184.546 146.771 185.31C147.587 188.03 148.305 190.784 149.121 193.504C149.38 194.363 149.868 194.685 150.771 194.575C152.278 194.408 153.787 194.265 155.298 194.146C155.876 194.091 156.473 193.961 156.995 194.378C157.629 195.716 157.614 197.166 157.595 198.566C157.535 200.879 157.779 203.187 157.872 205.509C158.029 209.568 158.16 213.629 158.442 217.676C158.415 218.194 158.573 218.792 158.084 219.256Z" fill="#6DB5DE"/>
<path d="M154.67 182.716C152.218 169.428 149.791 156.136 147.341 142.872L147.384 142.794C147.656 142.449 148.052 142.338 148.477 142.273C150.461 142.061 152.448 141.872 154.438 141.708C154.865 141.668 155.274 141.703 155.606 141.99C156.539 141.926 157.447 141.865 158.38 141.801C158.801 141.957 158.988 142.332 159.176 142.707C162.605 149.965 166.349 157.07 170.143 164.17C170.326 164.496 170.484 164.825 170.544 165.187C170.632 169.056 171.195 172.856 171.509 176.703C171.569 177.336 171.706 177.985 171.49 178.644C171.41 178.872 171.254 179.108 171.035 179.202C168.994 180.156 167.065 181.492 164.84 181.851C161.939 182.297 159.051 182.89 156.118 182.996C155.585 182.998 155.089 183.118 154.67 182.716Z" fill="black"/>
<path d="M170.237 164.873C166.846 158.815 163.669 152.613 160.619 146.399C159.865 144.875 159.135 143.325 158.381 141.801C160.766 141.526 163.119 141.18 165.536 141.246C168.284 141.329 170.617 142.384 172.425 144.323C174.968 147.051 178.013 149.192 180.99 151.413C183.422 153.244 186.105 154.781 188.631 156.529C189.528 157.156 189.919 156.996 190.416 156.09C191.391 154.329 192.501 152.653 193.531 150.936C194.431 149.452 194.406 149.454 195.943 150.143C199.491 152.236 203.044 154.377 206.702 156.288C207.139 156.615 207.192 156.905 206.858 157.402C204.236 161.332 201.667 165.281 199.072 169.232C198.605 168.859 198.628 168.293 198.554 167.784C198.407 166.498 198.36 165.202 198.163 163.92C197.891 162.13 196.933 161.386 195.06 161.441C194.376 161.457 193.725 161.543 193.046 161.607C187.739 162.11 182.432 162.613 177.125 163.116C174.736 163.343 172.239 163.236 170.237 164.873Z" fill="#6DB5DE"/>
<path d="M139.091 122.47C138.878 122.368 138.786 122.205 138.766 121.986C138.604 120.013 138.239 118.036 138.429 116.03C138.652 113.825 140.215 112.106 142.473 111.843C146.939 111.297 151.409 110.8 155.854 110.305C158.492 110.03 160.709 111.464 161.598 113.883C161.971 114.878 162.295 115.878 162.444 116.919C162.527 117.525 162.543 118.235 163.239 118.611C162.595 119.31 161.613 119.133 160.834 119.477C159.522 119.552 158.28 120.111 156.959 120.089C155.138 119.624 153.378 119.791 151.748 120.804C150.5 121.021 149.297 121.454 148.03 121.476C145.479 121.865 142.92 122.181 140.399 122.616C139.948 122.683 139.498 122.751 139.091 122.47Z" fill="#6DB5DE"/>
<path d="M148.123 121.129C149.348 120.939 150.574 120.749 151.799 120.559C151.996 121.031 151.617 121.313 151.423 121.675C150.411 123.587 151.026 125.786 152.842 126.743C154.871 127.802 157.095 127.174 158.23 125.226C158.95 123.98 158.975 123.977 159.941 125.064C160.82 126.035 161.885 126.572 163.248 126.492C163.628 126.481 164.003 126.421 164.309 126.711C164.835 131.986 162.646 134.868 156.888 136.494C154.762 137.088 155.15 136.634 155.3 138.755C155.379 139.852 155.508 140.944 155.611 142.038C152.87 142.298 150.131 142.582 147.389 142.842C147.279 141.944 147.191 141.02 147.081 140.123C147.069 140.001 147.083 139.877 147.071 139.756C146.234 135.467 147.998 131.324 147.873 127.066C147.833 125.573 147.844 124.075 147.827 122.555C147.828 122.04 147.73 121.534 148.123 121.129Z" fill="#FD9993"/>
<path d="M148.123 121.122C148.285 124.444 148.347 127.775 148.025 131.07C147.971 131.566 147.994 132.079 147.807 132.514C146.836 134.593 147.316 136.707 147.491 138.826C147.533 139.263 147.815 139.826 147.099 140.041C144.438 140.342 141.749 140.621 139.09 140.947C138.287 141.048 137.489 141.197 136.887 140.469C136.256 139.694 136.591 138.951 137.002 138.2C138.756 135.016 139.243 131.583 139.059 128.042C138.957 126.162 138.958 124.297 139.087 122.445C142.091 122.013 145.093 121.556 148.123 121.122Z" fill="black"/>
<path d="M164.332 126.688C162.011 127.104 160.22 126.415 159.018 124.174C158.678 125.138 158.342 125.882 157.687 126.459C156.121 127.884 153.691 127.942 152.046 126.65C150.481 125.4 150.108 123.079 151.214 121.355C151.392 121.093 151.595 120.828 151.799 120.563C153.33 119.314 155.015 119.154 156.829 119.817C157.631 119.986 158.121 120.602 158.709 121.184C159.347 120.412 159.744 119.516 160.729 119.202C161.531 118.831 162.35 118.631 163.235 118.596C165.391 118.858 166.853 120.093 167.177 121.903C167.551 123.978 166.652 125.462 164.332 126.688Z" fill="#010101"/>
<path d="M144.561 143.257C145.04 148.316 145.545 153.372 145.999 158.433C146.071 159.187 146.256 159.538 147.125 159.603C148.915 159.752 149.792 160.699 149.958 162.451C150.009 162.986 150.057 163.496 150.108 164.031C150.237 165.933 149.232 167.108 147.248 167.321C147.122 167.333 146.996 167.345 146.87 167.357C143.173 167.707 141.812 166.462 141.925 162.844C141.972 161.465 142.68 160.367 144.066 159.991C145.031 159.727 145.11 159.229 145.032 158.402C144.539 153.467 144.096 148.528 143.653 143.588C143.872 143.224 144.126 142.955 144.561 143.257Z" fill="#FDFDFE"/>
<path d="M158.08 219.252C157.722 211.728 157.389 204.202 157.032 196.677C156.985 195.921 156.886 195.145 156.79 194.394C157.098 193.898 157.628 193.872 158.131 193.825C162.531 193.383 166.907 192.968 171.311 192.576C171.738 192.535 172.143 192.521 172.541 192.704C173.108 193.068 173.09 193.683 173.143 194.242C173.307 195.699 173.395 197.163 173.584 198.618C173.873 200.872 174.805 201.594 177.093 201.377C180.365 201.091 183.607 200.76 186.879 200.474C187.508 200.414 188.249 200.197 188.741 200.837C190.648 206.227 192.531 211.644 194.438 217.033C186.817 217.756 179.196 218.478 171.576 219.2C170.564 218.437 170.451 217.246 169.998 216.209C169.292 214.656 169.288 214.607 167.603 214.767C166.722 214.851 165.84 214.91 164.964 215.042C164.086 215.15 163.723 215.601 163.829 216.45C163.918 217.129 163.958 217.812 164.025 218.517C164.071 219.004 164.142 219.488 163.804 219.937C162.396 220.07 160.957 220.158 159.558 220.388C158.532 220.535 158.072 220.235 158.08 219.252Z" fill="#8F3600"/>
<path d="M204.035 234.455C204.627 240.975 199.711 246.668 192.993 247.28C186.401 247.881 180.436 243.047 179.885 236.695C179.35 230.243 184.243 224.576 190.908 223.945C197.573 223.313 203.449 228.007 204.035 234.455Z" fill="#FDFEFD"/>
<path d="M168.53 237.898C169.111 244.297 164.174 250.041 157.532 250.646C150.89 251.251 145.01 246.508 144.401 240.087C143.793 233.667 148.704 227.925 155.344 227.296C162.085 226.657 167.935 231.354 168.53 237.898Z" fill="#FDFEFD"/>
<path d="M163.801 219.888C163.67 218.501 163.566 217.137 163.359 215.758C163.274 215.128 163.477 214.863 164.106 214.804C165.688 214.629 167.268 214.43 168.843 214.183C169.47 214.099 169.651 214.401 169.82 214.851C170.388 216.294 170.979 217.71 171.548 219.153C168.982 219.397 166.392 219.642 163.801 219.888Z" fill="#6DB5DE"/>
<path d="M188.74 200.789C187.103 200.649 185.487 200.999 183.849 201.13C181.456 201.307 179.071 201.583 176.707 201.807C174.594 202.007 173.496 201.129 173.275 199.065C173.054 197 172.883 194.93 172.689 192.887C173.093 192.333 173.734 192.395 174.287 192.343C177.303 192.033 180.296 191.749 183.316 191.487C184.549 191.37 185.747 191.159 186.908 190.828C188.961 190.265 189.993 188.842 190.312 186.849C190.314 186.063 189.715 186.439 189.413 186.468C187.449 186.629 185.489 186.839 183.525 187.001C182.972 187.054 182.357 187.259 181.877 186.74C182.166 186.05 182.834 186.134 183.387 186.082C185.02 185.902 186.657 185.772 188.29 185.592C188.617 185.561 188.971 185.552 189.293 185.473C189.691 185.386 190.194 185.338 190.089 184.759C190.017 184.275 189.562 184.294 189.185 184.33C187.344 184.455 185.488 184.68 183.647 184.806C182.966 184.846 182.209 185.163 181.662 184.478C182.009 183.856 182.652 183.943 183.205 183.89C185.114 183.685 187.028 183.528 188.937 183.323C189.289 183.289 189.818 183.509 189.936 182.884C189.395 181.463 188.293 180.807 186.802 180.605C185.233 180.385 183.635 180.39 182.057 180.073C181.421 179.52 180.627 179.718 179.879 179.592C177.331 178.68 174.745 178.165 172.022 178.889C171.775 178.962 171.519 178.937 171.322 178.735C170.951 174.819 170.553 170.881 170.207 166.963C170.142 166.282 170.203 165.589 170.214 164.901C170.938 163.704 172.035 163.232 173.421 163.125C180.516 162.477 187.608 161.805 194.726 161.13C197.241 160.892 198.259 161.728 198.517 164.182C198.679 165.884 198.863 167.56 199.049 169.26C199.165 170.746 199.283 172.256 199.398 173.742C200.099 181.136 200.8 188.529 201.5 195.923C201.77 198.768 201.105 199.519 198.115 199.827C194.998 200.147 191.836 200.25 188.74 200.789Z" fill="#202B6D"/>
<path d="M227.209 124.167C227.822 123.937 228.167 124.101 228.081 124.796C226.084 126.482 224.084 128.144 222.062 129.833C221.781 130.08 221.477 130.624 221.031 130.2C220.527 129.708 221.135 129.43 221.464 129.153C223.361 127.476 225.285 125.822 227.209 124.167Z" fill="#050303"/>
<path d="M224.013 122.058C224.555 121.884 224.804 122.106 224.855 122.641C222.835 124.354 220.817 126.091 218.772 127.806C218.465 128.056 218.132 128.554 217.711 128.128C217.205 127.611 217.866 127.352 218.17 127.078C220.117 125.396 222.066 123.739 224.013 122.058Z" fill="#060404"/>
<path d="M209.831 134.148C209.911 134.19 210.067 134.224 210.202 134.309C211.542 135.066 212.86 135.849 214.175 136.608C214.445 136.778 214.818 136.964 214.576 137.355C214.295 137.872 213.908 137.541 213.613 137.372C212.325 136.636 211.035 135.874 209.745 135.113C209.502 134.965 209.184 134.823 209.278 134.471C209.339 134.317 209.502 134.155 209.831 134.148Z" fill="#0A0606"/>
<path d="M181.804 184.394C183.275 184.647 184.706 184.217 186.147 184.154C187.182 184.105 188.239 184.005 189.265 183.859C190.116 183.729 190.53 183.813 190.624 184.81C190.721 185.831 190.136 185.813 189.457 185.877C187.367 186.051 185.279 186.249 183.194 186.471C182.792 186.509 182.35 186.404 182.001 186.731C182.303 187.243 182.794 187.073 183.247 187.03C185.161 186.874 187.095 186.666 189.009 186.509C189.537 186.459 190.109 186.331 190.555 186.755C190.561 188.963 188.964 190.857 186.621 191.3C182.755 192.01 178.813 192.187 174.894 192.607C174.142 192.703 173.387 192.775 172.66 192.868C167.353 193.371 162.046 193.874 156.767 194.399C154.579 194.607 152.411 194.763 150.228 195.019C149.4 195.122 149.048 194.885 148.821 194.097C147.99 190.961 147.085 187.832 146.156 184.73C145.929 183.942 146.092 183.779 146.869 183.681C149.457 183.411 152.036 183.044 154.62 182.726C158.033 182.328 161.523 182.194 164.854 181.461C167.092 180.979 169.149 179.655 171.268 178.718C174.269 177.722 177.144 178.063 179.932 179.369C179.498 179.877 178.886 179.837 178.307 179.891C176.8 180.059 175.312 180.151 173.817 180.44C176.558 180.45 179.277 179.947 182.009 179.86C183.699 180.018 185.407 180.102 187.104 180.334C188.595 180.536 189.73 181.263 190.129 182.795C189.772 183.32 189.185 183.277 188.657 183.328C186.747 183.533 184.809 183.692 182.899 183.898C182.522 183.934 181.978 183.813 181.804 184.394Z" fill="#FD9993"/>
<path d="M160.728 119.222C159.933 119.935 159.168 120.695 158.908 121.971C158.219 121.128 157.64 120.373 156.825 119.813C158.126 119.616 159.427 119.419 160.728 119.222Z" fill="#F4948F"/>
<path d="M145.304 132.358C142.601 132.222 140.645 130.861 140.527 129.081C140.381 127.279 142.079 125.646 144.619 125.135C144.847 127.543 145.076 129.951 145.304 132.358Z" fill="#FC9993"/>
<path d="M158.01 123.19C158.153 124.967 156.871 126.439 155.035 126.613C153.224 126.784 151.685 125.531 151.539 123.729C151.403 122.025 152.705 120.502 154.441 120.338C156.226 120.169 157.871 121.46 158.01 123.19Z" fill="#FC9993"/>
<path d="M164.447 125.501C162.904 126.089 161.692 125.885 160.683 124.876C159.786 123.98 159.547 122.53 160.097 121.374C160.693 120.164 161.827 119.541 163.357 119.617C163.282 120.434 163.811 121.193 163.56 122.027C162.89 122.728 163.215 123.213 163.936 123.586C164.197 124.2 164.408 124.818 164.447 125.501Z" fill="#FC9993"/>
<path d="M164.448 125.493C163.816 124.988 163.898 124.244 163.783 123.568C163.808 123.026 163.734 122.518 163.411 122.057C163.288 121.554 163.187 121.024 163.063 120.52C162.978 120.16 162.843 119.805 163.357 119.609C164.949 119.801 165.944 120.664 166.199 122.014C166.502 123.605 165.968 124.662 164.448 125.493Z" fill="#EBE8E8"/>
<path d="M149.104 163.347C149.332 165.755 148.918 166.211 146.328 166.457C143.838 166.693 143.234 166.21 142.999 163.729C142.784 161.467 143.406 160.795 145.971 160.552C148.285 160.333 148.866 160.842 149.104 163.347Z" fill="#6DB5DE"/>
<path d="M191.001 224.897C197.163 224.313 202.49 228.569 203.082 234.549C203.672 240.506 199.219 245.737 193.06 246.346C186.95 246.949 181.464 242.611 180.883 236.752C180.288 230.747 184.789 225.486 191.001 224.897Z" fill="#31B58D"/>
<path d="M167.572 237.961C168.134 243.895 163.606 249.134 157.467 249.691C151.303 250.251 145.946 245.949 145.384 240.015C144.812 233.983 149.272 228.824 155.534 228.231C161.673 227.673 167.004 231.978 167.572 237.961Z" fill="#31B58D"/>
<path d="M182.061 179.849C181.844 180.237 181.437 180.227 181.085 180.26C178.67 180.489 176.231 180.72 173.816 180.949C173.414 180.987 172.87 181.137 172.817 180.578C172.764 180.018 173.324 180.039 173.726 180.001C175.812 179.778 177.899 179.581 179.987 179.383C180.686 179.537 181.623 178.712 182.061 179.849Z" fill="#040203"/>
<path d="M190.582 186.749C187.991 186.994 185.401 187.24 182.833 187.459C182.33 187.506 181.587 187.699 182.027 186.725C184.744 186.468 187.462 186.235 190.179 185.977C190.506 185.946 190.924 185.808 191.087 186.186C191.249 186.563 190.851 186.65 190.582 186.749Z" fill="#0E0908"/>
<path d="M181.805 184.383C181.607 183.641 181.605 183.616 182.435 183.538C185.023 183.268 187.589 183.025 190.179 182.779C190.438 182.828 190.719 182.851 190.699 183.172C190.669 183.665 190.253 183.557 189.926 183.588C187.237 183.868 184.521 184.125 181.805 184.383Z" fill="#0E0908"/>
<path d="M156.178 123.602C156.173 124.093 155.897 124.389 155.419 124.435C155.017 124.473 154.694 124.282 154.625 123.823C154.554 123.339 154.778 123.023 155.278 122.951C155.777 122.855 156.061 123.171 156.178 123.602Z" fill="#110A0A"/>
<path d="M163.409 122.06C164.326 122.365 164.402 122.898 163.78 123.57C163.305 123.64 162.825 123.661 162.669 123.087C162.485 122.491 162.837 122.187 163.409 122.06Z" fill="#121111"/>
<path d="M198.26 231.908C198.46 234.023 198.64 235.921 198.84 238.036C197.681 237.312 196.683 236.695 195.686 236.078C195.597 236.209 195.526 236.265 195.533 236.338C195.679 238.95 195.633 239.003 192.992 239.253C191.559 239.389 190.148 239.498 188.717 239.659C187.562 239.793 186.976 239.235 186.852 238.191C186.693 236.783 186.559 235.372 186.448 233.935C186.37 232.838 186.948 232.244 188.029 232.141C189.612 231.967 191.221 231.814 192.808 231.688C194.619 231.516 195.061 231.892 195.249 233.616C195.272 233.859 195.296 234.103 195.339 234.565C196.365 233.609 197.254 232.813 198.26 231.908Z" fill="#FEFEFE"/>
<path d="M160.893 245.162C159.288 245.093 157.714 244.556 156.307 243.634C153.333 241.707 150.852 239.365 149.764 235.91C149.321 234.456 149.892 233.518 151.36 232.937C151.97 232.683 152.185 233.08 152.341 233.384C152.833 234.294 154.427 234.781 153.953 235.931C153.145 237.848 153.024 238.178 154.58 239.601C155.191 240.157 155.847 240.659 156.504 241.161C157.515 241.924 158.526 242.147 159.518 241.096C159.748 240.854 159.97 240.783 160.29 240.949C161.173 241.43 162.052 241.862 162.958 242.316C163.145 242.421 163.283 242.531 163.281 242.776C163.247 243.761 162.027 245.079 160.893 245.162Z" fill="#FEFEFE"/>
</svg>
