<svg width="439" height="43" viewBox="0 0 439 43" fill="none" xmlns="http://www.w3.org/2000/svg">
<rect x="0.625" y="0.765625" width="437.771" height="41.6611" rx="16" fill="#329D9C"/>
<g clip-path="url(#clip0_872_3191)">
<path fill-rule="evenodd" clip-rule="evenodd" d="M22.5117 11.5938C20.39 11.5938 18.3552 12.4366 16.8549 13.9369C15.3546 15.4372 14.5117 17.472 14.5117 19.5938C14.5117 22.6918 16.5275 25.698 18.7377 28.031C19.8223 29.1759 20.9104 30.1132 21.7284 30.7646C22.0328 31.007 22.2987 31.2089 22.5117 31.3663C22.7247 31.2089 22.9906 31.007 23.295 30.7646C24.1131 30.1132 25.2011 29.1759 26.2858 28.031C28.496 25.698 30.5117 22.6918 30.5117 19.5938C30.5117 17.472 29.6689 15.4372 28.1686 13.9369C26.6683 12.4366 24.6335 11.5938 22.5117 11.5938ZM22.5117 32.5938C21.957 33.4258 21.9568 33.4256 21.9565 33.4254L21.9536 33.4235L21.947 33.4191L21.924 33.4036C21.9046 33.3903 21.8768 33.3713 21.8413 33.3467C21.7702 33.2975 21.6682 33.2259 21.5395 33.1329C21.2823 32.9472 20.9181 32.676 20.4825 32.3292C19.6131 31.6368 18.4511 30.6366 17.2858 29.4065C14.996 26.9895 12.5117 23.4957 12.5117 19.5938C12.5117 16.9416 13.5653 14.398 15.4407 12.5227C17.316 10.6473 19.8596 9.59375 22.5117 9.59375C25.1639 9.59375 27.7074 10.6473 29.5828 12.5227C31.4581 14.398 32.5117 16.9416 32.5117 19.5938C32.5117 23.4957 30.0275 26.9895 27.7377 29.4065C26.5723 30.6366 25.4104 31.6368 24.5409 32.3292C24.1054 32.676 23.7412 32.9472 23.4839 33.1329C23.3553 33.2259 23.2532 33.2975 23.1822 33.3467C23.1466 33.3713 23.1189 33.3903 23.0994 33.4036L23.0765 33.4191L23.0698 33.4235L23.0677 33.4249C23.0674 33.4251 23.0664 33.4258 22.5117 32.5938ZM22.5117 32.5938L23.0664 33.4258C22.7305 33.6497 22.2924 33.6494 21.9565 33.4254L22.5117 32.5938Z" fill="#B5FDE7"/>
<path fill-rule="evenodd" clip-rule="evenodd" d="M22.5117 17.5938C21.4071 17.5938 20.5117 18.4892 20.5117 19.5938C20.5117 20.6983 21.4071 21.5938 22.5117 21.5938C23.6163 21.5938 24.5117 20.6983 24.5117 19.5938C24.5117 18.4892 23.6163 17.5938 22.5117 17.5938ZM18.5117 19.5938C18.5117 17.3846 20.3026 15.5938 22.5117 15.5938C24.7209 15.5938 26.5117 17.3846 26.5117 19.5938C26.5117 21.8029 24.7209 23.5938 22.5117 23.5938C20.3026 23.5938 18.5117 21.8029 18.5117 19.5938Z" fill="#B5FDE7"/>
</g>
<path d="M47.7677 28.2378C47.0357 28.2378 46.3397 28.2198 45.6797 28.1838C45.0317 28.1478 44.5157 28.1058 44.1317 28.0577V15.5297C44.5517 15.4817 45.0737 15.4397 45.6977 15.4037C46.3217 15.3677 47.0357 15.3497 47.8397 15.3497C49.3757 15.3497 50.5577 15.6437 51.3857 16.2317C52.2137 16.8077 52.6277 17.5938 52.6277 18.5898C52.6277 19.2497 52.4477 19.8137 52.0877 20.2817C51.7397 20.7377 51.2297 21.1157 50.5577 21.4157C51.3737 21.7037 51.9917 22.1057 52.4117 22.6217C52.8317 23.1257 53.0417 23.7497 53.0417 24.4937C53.0417 25.6337 52.5917 26.5457 51.6917 27.2297C50.7917 27.9018 49.4837 28.2378 47.7677 28.2378ZM45.8417 20.9297H47.8217C48.7697 20.9297 49.5197 20.7317 50.0717 20.3357C50.6357 19.9397 50.9177 19.4297 50.9177 18.8057C50.9177 18.1337 50.6417 17.6237 50.0897 17.2757C49.5377 16.9157 48.7817 16.7357 47.8217 16.7357C47.4257 16.7357 47.0657 16.7477 46.7417 16.7717C46.4177 16.7837 46.1177 16.8017 45.8417 16.8257V20.9297ZM47.8937 26.8157C48.9617 26.8157 49.7957 26.6237 50.3957 26.2397C50.9957 25.8557 51.2957 25.2977 51.2957 24.5657C51.2957 23.8457 51.0017 23.2817 50.4137 22.8737C49.8257 22.4657 48.9857 22.2617 47.8937 22.2617H45.8417V26.7077C46.4777 26.7797 47.1617 26.8157 47.8937 26.8157ZM55.6496 28.0938V15.4937H58.0436L61.5356 23.4678L64.9736 15.4937H67.4216V28.0938H65.7116V17.6717L62.3456 25.2497H60.6536L57.2696 17.6717V28.0938H55.6496ZM70.8413 28.0938V15.4937H72.5513V26.5637H78.3293V28.0938H70.8413ZM85.7912 28.0938V15.4937H88.1852L91.6772 23.4678L95.1152 15.4937H97.5632V28.0938H95.8532V17.6717L92.4872 25.2497H90.7952L87.4112 17.6717V28.0938H85.7912ZM103.863 28.3098C103.323 28.3098 102.813 28.1957 102.333 27.9677C101.853 27.7397 101.463 27.3737 101.163 26.8697C100.863 26.3537 100.713 25.6697 100.713 24.8177V18.7337H102.333V24.6017C102.333 25.3337 102.489 25.8977 102.801 26.2937C103.113 26.6777 103.569 26.8697 104.169 26.8697C104.661 26.8697 105.135 26.7737 105.591 26.5817C106.059 26.3777 106.473 26.1077 106.833 25.7717V18.7337H108.453V25.6637C108.453 26.1797 108.561 26.5217 108.777 26.6897C109.005 26.8457 109.251 26.9237 109.515 26.9237L109.173 28.1838C108.057 28.1838 107.367 27.7397 107.103 26.8517C106.683 27.2837 106.197 27.6377 105.645 27.9137C105.093 28.1777 104.499 28.3098 103.863 28.3098ZM111.846 28.0938V18.7337H113.412V20.2997C113.748 19.7957 114.174 19.3757 114.69 19.0397C115.218 18.6917 115.842 18.5177 116.562 18.5177C117.618 18.5177 118.404 18.8357 118.92 19.4717C119.448 20.1077 119.712 20.9477 119.712 21.9917V28.0938H118.092V22.1717C118.092 21.4997 117.93 20.9597 117.606 20.5517C117.294 20.1437 116.856 19.9397 116.292 19.9397C115.74 19.9397 115.218 20.1377 114.726 20.5337C114.234 20.9177 113.814 21.3737 113.466 21.9017V28.0938H111.846ZM121.545 32.2698C120.813 32.2698 120.201 32.1318 119.709 31.8558L120.105 30.5058C120.261 30.6018 120.453 30.6858 120.681 30.7578C120.897 30.8298 121.119 30.8658 121.347 30.8658C122.367 30.8658 122.877 30.2298 122.877 28.9578V18.7337H124.497V29.1198C124.497 29.8518 124.365 30.4458 124.101 30.9018C123.837 31.3698 123.483 31.7118 123.039 31.9278C122.595 32.1558 122.097 32.2698 121.545 32.2698ZM123.651 17.1317C123.339 17.1317 123.069 17.0177 122.841 16.7897C122.625 16.5617 122.517 16.2977 122.517 15.9977C122.517 15.6497 122.619 15.3737 122.823 15.1697C123.027 14.9657 123.303 14.8637 123.651 14.8637C123.963 14.8637 124.227 14.9777 124.443 15.2057C124.671 15.4217 124.785 15.6857 124.785 15.9977C124.785 16.3337 124.683 16.6097 124.479 16.8257C124.275 17.0297 123.999 17.1317 123.651 17.1317ZM131.134 28.3098C130.354 28.3098 129.646 28.1117 129.01 27.7157C128.374 27.3197 127.864 26.7617 127.48 26.0417C127.108 25.3097 126.922 24.4517 126.922 23.4678C126.922 22.5317 127.108 21.6917 127.48 20.9477C127.864 20.2037 128.386 19.6157 129.046 19.1837C129.718 18.7397 130.486 18.5177 131.35 18.5177C131.89 18.5177 132.376 18.6137 132.808 18.8057C133.252 18.9857 133.636 19.2137 133.96 19.4897V18.7337H135.436V25.8257C135.436 26.2817 135.544 26.5817 135.76 26.7257C135.988 26.8577 136.234 26.9237 136.498 26.9237L136.156 28.1838C135.004 28.1838 134.308 27.7157 134.068 26.7797C133.792 27.1637 133.414 27.5177 132.934 27.8417C132.466 28.1537 131.866 28.3098 131.134 28.3098ZM131.494 26.8697C131.95 26.8697 132.382 26.7617 132.79 26.5457C133.198 26.3177 133.54 26.0357 133.816 25.6997V20.6777C133.492 20.4497 133.132 20.2697 132.736 20.1377C132.352 19.9937 131.944 19.9217 131.512 19.9217C130.936 19.9217 130.426 20.0717 129.982 20.3717C129.55 20.6597 129.208 21.0677 128.956 21.5957C128.704 22.1117 128.578 22.7177 128.578 23.4137C128.578 24.0857 128.704 24.6857 128.956 25.2137C129.208 25.7297 129.556 26.1377 130 26.4377C130.444 26.7257 130.942 26.8697 131.494 26.8697ZM141.685 28.3098C141.133 28.3098 140.635 28.2077 140.191 28.0037C139.747 27.7877 139.393 27.4457 139.129 26.9777C138.877 26.5097 138.751 25.9037 138.751 25.1597V14.7737H140.371V24.9977C140.371 25.6457 140.503 26.1257 140.767 26.4377C141.043 26.7497 141.421 26.9058 141.901 26.9058C142.129 26.9058 142.351 26.8818 142.567 26.8337C142.795 26.7737 142.987 26.7077 143.143 26.6357L143.539 27.9497C143.323 28.0457 143.053 28.1298 142.729 28.2018C142.417 28.2738 142.069 28.3098 141.685 28.3098ZM155.392 28.3098C153.94 28.3098 152.8 27.8777 151.972 27.0137C151.144 26.1497 150.73 24.9137 150.73 23.3057V15.4937H152.44V23.0357C152.44 24.2357 152.686 25.1657 153.178 25.8257C153.67 26.4857 154.408 26.8157 155.392 26.8157C156.412 26.8157 157.174 26.4977 157.678 25.8617C158.182 25.2137 158.434 24.2717 158.434 23.0357V15.4937H160.09V23.2337C160.09 24.2897 159.892 25.2017 159.496 25.9697C159.112 26.7257 158.566 27.3077 157.858 27.7157C157.162 28.1117 156.34 28.3098 155.392 28.3098ZM163.059 28.0938V18.7337H164.625V20.2997C164.961 19.7957 165.387 19.3757 165.903 19.0397C166.431 18.6917 167.055 18.5177 167.775 18.5177C168.831 18.5177 169.617 18.8357 170.133 19.4717C170.661 20.1077 170.925 20.9477 170.925 21.9917V28.0938H169.305V22.1717C169.305 21.4997 169.143 20.9597 168.819 20.5517C168.507 20.1437 168.069 19.9397 167.505 19.9397C166.953 19.9397 166.431 20.1377 165.939 20.5337C165.447 20.9177 165.027 21.3737 164.679 21.9017V28.0938H163.059ZM173.891 28.0938V18.7337H175.511V28.0938H173.891ZM174.701 17.1317C174.389 17.1317 174.119 17.0177 173.891 16.7897C173.675 16.5617 173.567 16.2977 173.567 15.9977C173.567 15.6497 173.669 15.3737 173.873 15.1697C174.077 14.9657 174.353 14.8637 174.701 14.8637C175.013 14.8637 175.277 14.9777 175.493 15.2057C175.721 15.4217 175.835 15.6857 175.835 15.9977C175.835 16.3337 175.733 16.6097 175.529 16.8257C175.325 17.0297 175.049 17.1317 174.701 17.1317ZM181.073 28.0938L177.311 19.1657L178.787 18.5537L181.973 26.2577L185.159 18.5537L186.545 19.1657L182.765 28.0938H181.073ZM191.741 28.3098C190.397 28.3098 189.329 27.8837 188.537 27.0317C187.757 26.1677 187.367 24.9617 187.367 23.4137C187.367 22.4777 187.541 21.6437 187.889 20.9117C188.249 20.1677 188.747 19.5857 189.383 19.1657C190.019 18.7337 190.757 18.5177 191.597 18.5177C192.497 18.5177 193.241 18.7157 193.829 19.1117C194.429 19.4957 194.879 20.0177 195.179 20.6777C195.479 21.3377 195.629 22.0637 195.629 22.8557C195.629 23.2757 195.611 23.6837 195.575 24.0797H189.023C189.131 24.9557 189.437 25.6397 189.941 26.1317C190.445 26.6237 191.111 26.8697 191.939 26.8697C192.479 26.8697 192.965 26.8157 193.397 26.7077C193.829 26.5877 194.243 26.4377 194.639 26.2577L195.017 27.6437C194.585 27.8357 194.099 27.9917 193.559 28.1118C193.019 28.2438 192.413 28.3098 191.741 28.3098ZM189.005 22.7657H194.135C194.135 21.8537 193.907 21.1517 193.451 20.6597C192.995 20.1677 192.365 19.9217 191.561 19.9217C190.865 19.9217 190.289 20.1677 189.833 20.6597C189.377 21.1397 189.101 21.8417 189.005 22.7657ZM197.968 28.0938V18.7337H199.534V20.7677C199.69 20.3717 199.9 20.0057 200.164 19.6697C200.428 19.3217 200.758 19.0457 201.154 18.8418C201.55 18.6257 202.012 18.5177 202.54 18.5177C202.72 18.5177 202.9 18.5297 203.08 18.5537C203.26 18.5657 203.41 18.5897 203.53 18.6257L203.044 20.2997C202.816 20.2037 202.546 20.1557 202.234 20.1557C201.79 20.1557 201.364 20.2817 200.956 20.5337C200.56 20.7857 200.23 21.1757 199.966 21.7037C199.714 22.2317 199.588 22.9037 199.588 23.7197V28.0938H197.968ZM207.401 28.3098C206.693 28.3098 206.051 28.2198 205.475 28.0397C204.911 27.8597 204.443 27.6257 204.071 27.3377L204.755 25.9877C205.067 26.2517 205.457 26.4737 205.925 26.6537C206.405 26.8217 206.915 26.9058 207.455 26.9058C208.127 26.9058 208.631 26.7977 208.967 26.5817C209.315 26.3537 209.489 26.0657 209.489 25.7178C209.489 25.4657 209.423 25.2437 209.291 25.0517C209.171 24.8597 208.943 24.6737 208.607 24.4937C208.271 24.3017 207.785 24.0977 207.149 23.8817C206.273 23.5817 205.613 23.2277 205.169 22.8197C204.737 22.3997 204.521 21.8237 204.521 21.0917C204.521 20.3717 204.833 19.7657 205.457 19.2737C206.093 18.7697 206.969 18.5177 208.085 18.5177C208.685 18.5177 209.219 18.5837 209.687 18.7157C210.155 18.8357 210.575 18.9917 210.947 19.1837L210.497 20.5157C210.173 20.3237 209.801 20.1677 209.381 20.0477C208.973 19.9277 208.517 19.8677 208.013 19.8677C207.389 19.8677 206.915 19.9937 206.591 20.2457C206.267 20.4977 206.105 20.7737 206.105 21.0737C206.105 21.3617 206.231 21.6077 206.483 21.8117C206.735 22.0157 207.227 22.2377 207.959 22.4777C209.147 22.8737 209.975 23.3117 210.443 23.7917C210.911 24.2717 211.145 24.8717 211.145 25.5917C211.145 26.4317 210.803 27.0977 210.119 27.5897C209.447 28.0697 208.541 28.3098 207.401 28.3098ZM213.481 28.0938V18.7337H215.101V28.0938H213.481ZM214.291 17.1317C213.979 17.1317 213.709 17.0177 213.481 16.7897C213.265 16.5617 213.157 16.2977 213.157 15.9977C213.157 15.6497 213.259 15.3737 213.463 15.1697C213.667 14.9657 213.943 14.8637 214.291 14.8637C214.603 14.8637 214.867 14.9777 215.083 15.2057C215.311 15.4217 215.425 15.6857 215.425 15.9977C215.425 16.3337 215.323 16.6097 215.119 16.8257C214.915 17.0297 214.639 17.1317 214.291 17.1317ZM221.437 28.3098C220.537 28.3098 219.823 28.0157 219.295 27.4277C218.779 26.8277 218.521 25.9757 218.521 24.8717V20.4797H216.901V19.0757H218.557L218.899 16.1237H220.141V19.0757H222.733V20.4797H220.141V24.9977C220.141 25.6937 220.285 26.1797 220.573 26.4557C220.873 26.7317 221.227 26.8697 221.635 26.8697C221.935 26.8697 222.217 26.8217 222.481 26.7257C222.757 26.6297 223.009 26.5157 223.237 26.3837L223.687 27.6797C223.447 27.8237 223.123 27.9617 222.715 28.0938C222.307 28.2378 221.881 28.3098 221.437 28.3098ZM225.553 32.2698C225.193 32.2698 224.875 32.2338 224.599 32.1618C224.335 32.0898 224.125 32.0058 223.969 31.9098L224.329 30.5598C224.473 30.6438 224.653 30.7158 224.869 30.7758C225.085 30.8358 225.325 30.8658 225.589 30.8658C226.093 30.8658 226.543 30.7038 226.939 30.3798C227.335 30.0558 227.713 29.4198 228.073 28.4718L228.487 27.3917H227.623L223.969 19.1657L225.409 18.5177L228.901 26.3117L231.619 18.5898L233.113 19.1657L229.675 28.5618C229.327 29.5218 228.949 30.2718 228.541 30.8118C228.133 31.3518 227.683 31.7298 227.191 31.9458C226.699 32.1618 226.153 32.2698 225.553 32.2698ZM240.48 30.9738L239.598 30.4697C240.078 29.8577 240.462 29.2398 240.75 28.6158C241.05 27.9917 241.278 27.2777 241.434 26.4737L243.018 26.9237C242.898 27.8357 242.61 28.6338 242.154 29.3178C241.71 30.0018 241.152 30.5538 240.48 30.9738ZM259.661 28.3098L253.541 22.2977V28.0938H251.831V15.4937H253.541V21.2357L258.905 15.4397L260.057 16.5017L255.143 21.6137L260.849 27.0857L259.661 28.3098ZM266.223 28.3098C265.443 28.3098 264.735 28.1117 264.099 27.7157C263.463 27.3197 262.953 26.7617 262.569 26.0417C262.197 25.3097 262.011 24.4517 262.011 23.4678C262.011 22.5317 262.197 21.6917 262.569 20.9477C262.953 20.2037 263.475 19.6157 264.135 19.1837C264.807 18.7397 265.575 18.5177 266.439 18.5177C266.979 18.5177 267.465 18.6137 267.897 18.8057C268.341 18.9857 268.725 19.2137 269.049 19.4897V18.7337H270.525V25.8257C270.525 26.2817 270.633 26.5817 270.849 26.7257C271.077 26.8577 271.323 26.9237 271.587 26.9237L271.245 28.1838C270.093 28.1838 269.397 27.7157 269.157 26.7797C268.881 27.1637 268.503 27.5177 268.023 27.8417C267.555 28.1537 266.955 28.3098 266.223 28.3098ZM266.583 26.8697C267.039 26.8697 267.471 26.7617 267.879 26.5457C268.287 26.3177 268.629 26.0357 268.905 25.6997V20.6777C268.581 20.4497 268.221 20.2697 267.825 20.1377C267.441 19.9937 267.033 19.9217 266.601 19.9217C266.025 19.9217 265.515 20.0717 265.071 20.3717C264.639 20.6597 264.297 21.0677 264.045 21.5957C263.793 22.1117 263.667 22.7177 263.667 23.4137C263.667 24.0857 263.793 24.6857 264.045 25.2137C264.297 25.7297 264.645 26.1377 265.089 26.4377C265.533 26.7257 266.031 26.8697 266.583 26.8697ZM274.009 32.0538V21.1277C274.009 20.7197 273.907 20.4317 273.703 20.2637C273.511 20.0837 273.259 19.9937 272.947 19.9937L273.289 18.7337C274.393 18.7337 275.083 19.1717 275.359 20.0477C275.479 19.8677 275.671 19.6577 275.935 19.4177C276.211 19.1777 276.547 18.9677 276.943 18.7877C277.351 18.6077 277.813 18.5177 278.329 18.5177C279.049 18.5177 279.721 18.7097 280.345 19.0938C280.981 19.4657 281.491 20.0117 281.875 20.7317C282.259 21.4397 282.451 22.3037 282.451 23.3237C282.451 24.3197 282.259 25.1957 281.875 25.9517C281.491 26.6957 280.987 27.2777 280.363 27.6977C279.751 28.1057 279.085 28.3098 278.365 28.3098C277.813 28.3098 277.297 28.2018 276.817 27.9857C276.337 27.7577 275.941 27.4997 275.629 27.2117V32.0538H274.009ZM278.041 26.8697C278.857 26.8697 279.517 26.5517 280.021 25.9157C280.537 25.2677 280.795 24.4217 280.795 23.3777C280.795 22.6577 280.663 22.0397 280.399 21.5237C280.147 21.0077 279.805 20.6117 279.373 20.3357C278.953 20.0597 278.485 19.9217 277.969 19.9217C277.453 19.9217 276.985 20.0537 276.565 20.3177C276.157 20.5697 275.845 20.8457 275.629 21.1457V25.7537C275.941 26.0777 276.301 26.3477 276.709 26.5637C277.117 26.7677 277.561 26.8697 278.041 26.8697ZM284.886 28.0938V18.7337H286.452V20.7677C286.608 20.3717 286.818 20.0057 287.082 19.6697C287.346 19.3217 287.676 19.0457 288.072 18.8418C288.468 18.6257 288.93 18.5177 289.458 18.5177C289.638 18.5177 289.818 18.5297 289.998 18.5537C290.178 18.5657 290.328 18.5897 290.448 18.6257L289.962 20.2997C289.734 20.2037 289.464 20.1557 289.152 20.1557C288.708 20.1557 288.282 20.2817 287.874 20.5337C287.478 20.7857 287.148 21.1757 286.884 21.7037C286.632 22.2317 286.506 22.9037 286.506 23.7197V28.0938H284.886ZM292.255 28.0938V18.7337H293.875V28.0938H292.255ZM293.065 17.1317C292.753 17.1317 292.483 17.0177 292.255 16.7897C292.039 16.5617 291.931 16.2977 291.931 15.9977C291.931 15.6497 292.033 15.3737 292.237 15.1697C292.441 14.9657 292.717 14.8637 293.065 14.8637C293.377 14.8637 293.641 14.9777 293.857 15.2057C294.085 15.4217 294.199 15.6857 294.199 15.9977C294.199 16.3337 294.097 16.6097 293.893 16.8257C293.689 17.0297 293.413 17.1317 293.065 17.1317ZM298.897 28.0938L295.945 19.1657L297.439 18.6437L299.851 26.2577L302.047 19.3997H303.793L305.935 26.2577L308.329 18.6437L309.769 19.1657L306.799 28.0938H305.017L302.857 21.1277L300.679 28.0938H298.897ZM315.252 28.3098C314.472 28.3098 313.764 28.1117 313.128 27.7157C312.492 27.3197 311.982 26.7617 311.598 26.0417C311.226 25.3097 311.04 24.4517 311.04 23.4678C311.04 22.5317 311.226 21.6917 311.598 20.9477C311.982 20.2037 312.504 19.6157 313.164 19.1837C313.836 18.7397 314.604 18.5177 315.468 18.5177C316.008 18.5177 316.494 18.6137 316.926 18.8057C317.37 18.9857 317.754 19.2137 318.078 19.4897V18.7337H319.554V25.8257C319.554 26.2817 319.662 26.5817 319.878 26.7257C320.106 26.8577 320.352 26.9237 320.616 26.9237L320.274 28.1838C319.122 28.1838 318.426 27.7157 318.186 26.7797C317.91 27.1637 317.532 27.5177 317.052 27.8417C316.584 28.1537 315.984 28.3098 315.252 28.3098ZM315.612 26.8697C316.068 26.8697 316.5 26.7617 316.908 26.5457C317.316 26.3177 317.658 26.0357 317.934 25.6997V20.6777C317.61 20.4497 317.25 20.2697 316.854 20.1377C316.47 19.9937 316.062 19.9217 315.63 19.9217C315.054 19.9217 314.544 20.0717 314.1 20.3717C313.668 20.6597 313.326 21.0677 313.074 21.5957C312.822 22.1117 312.696 22.7177 312.696 23.4137C312.696 24.0857 312.822 24.6857 313.074 25.2137C313.326 25.7297 313.674 26.1377 314.118 26.4377C314.562 26.7257 315.06 26.8697 315.612 26.8697ZM325.479 28.3098C324.771 28.3098 324.129 28.2198 323.553 28.0397C322.989 27.8597 322.521 27.6257 322.149 27.3377L322.833 25.9877C323.145 26.2517 323.535 26.4737 324.003 26.6537C324.483 26.8217 324.993 26.9058 325.533 26.9058C326.205 26.9058 326.709 26.7977 327.045 26.5817C327.393 26.3537 327.567 26.0657 327.567 25.7178C327.567 25.4657 327.501 25.2437 327.369 25.0517C327.249 24.8597 327.021 24.6737 326.685 24.4937C326.349 24.3017 325.863 24.0977 325.227 23.8817C324.351 23.5817 323.691 23.2277 323.247 22.8197C322.815 22.3997 322.599 21.8237 322.599 21.0917C322.599 20.3717 322.911 19.7657 323.535 19.2737C324.171 18.7697 325.047 18.5177 326.163 18.5177C326.763 18.5177 327.297 18.5837 327.765 18.7157C328.233 18.8357 328.653 18.9917 329.025 19.1837L328.575 20.5157C328.251 20.3237 327.879 20.1677 327.459 20.0477C327.051 19.9277 326.595 19.8677 326.091 19.8677C325.467 19.8677 324.993 19.9937 324.669 20.2457C324.345 20.4977 324.183 20.7737 324.183 21.0737C324.183 21.3617 324.309 21.6077 324.561 21.8117C324.813 22.0157 325.305 22.2377 326.037 22.4777C327.225 22.8737 328.053 23.3117 328.521 23.7917C328.989 24.2717 329.223 24.8717 329.223 25.5917C329.223 26.4317 328.881 27.0977 328.197 27.5897C327.525 28.0697 326.619 28.3098 325.479 28.3098ZM331.541 30.9738L330.659 30.4697C331.139 29.8577 331.523 29.2398 331.811 28.6158C332.111 27.9917 332.339 27.2777 332.495 26.4737L334.079 26.9237C333.959 27.8357 333.671 28.6338 333.215 29.3178C332.771 30.0018 332.213 30.5538 331.541 30.9738ZM347.194 28.3098C346.222 28.3098 345.358 28.0577 344.602 27.5537C343.846 27.0497 343.252 26.3357 342.82 25.4117C342.388 24.4757 342.172 23.3777 342.172 22.1177C342.172 20.7737 342.4 19.5917 342.856 18.5717C343.312 17.5397 343.966 16.7357 344.818 16.1597C345.682 15.5717 346.72 15.2777 347.932 15.2777C348.712 15.2777 349.408 15.3737 350.02 15.5657C350.632 15.7577 351.208 16.0037 351.748 16.3037L351.118 17.7257C350.614 17.4497 350.098 17.2217 349.57 17.0417C349.054 16.8617 348.478 16.7717 347.842 16.7717C347.086 16.7717 346.414 16.9757 345.826 17.3837C345.238 17.7797 344.77 18.3677 344.422 19.1477C344.086 19.9277 343.918 20.8817 343.918 22.0097C343.918 23.0177 344.074 23.8817 344.386 24.6017C344.698 25.3097 345.13 25.8557 345.682 26.2397C346.234 26.6237 346.87 26.8157 347.59 26.8157C348.262 26.8157 348.856 26.6777 349.372 26.4017C349.9 26.1137 350.314 25.8197 350.614 25.5197V22.7657H348.004V21.4157H352.234V28.0938H350.722V26.8337C350.302 27.2057 349.792 27.5477 349.192 27.8597C348.592 28.1597 347.926 28.3098 347.194 28.3098ZM358.081 28.3098C357.541 28.3098 357.031 28.1957 356.551 27.9677C356.071 27.7397 355.681 27.3737 355.381 26.8697C355.081 26.3537 354.931 25.6697 354.931 24.8177V18.7337H356.551V24.6017C356.551 25.3337 356.707 25.8977 357.019 26.2937C357.331 26.6777 357.787 26.8697 358.387 26.8697C358.879 26.8697 359.353 26.7737 359.809 26.5817C360.277 26.3777 360.691 26.1077 361.051 25.7717V18.7337H362.671V25.6637C362.671 26.1797 362.779 26.5217 362.995 26.6897C363.223 26.8457 363.469 26.9237 363.733 26.9237L363.391 28.1838C362.275 28.1838 361.585 27.7397 361.321 26.8517C360.901 27.2837 360.415 27.6377 359.863 27.9137C359.311 28.1777 358.717 28.3098 358.081 28.3098ZM366.065 28.0938V18.7337H367.631V20.7677C367.787 20.3717 367.997 20.0057 368.261 19.6697C368.525 19.3217 368.855 19.0457 369.251 18.8418C369.647 18.6257 370.109 18.5177 370.637 18.5177C370.817 18.5177 370.997 18.5297 371.177 18.5537C371.357 18.5657 371.507 18.5897 371.627 18.6257L371.141 20.2997C370.913 20.2037 370.643 20.1557 370.331 20.1557C369.887 20.1557 369.461 20.2817 369.053 20.5337C368.657 20.7857 368.327 21.1757 368.063 21.7037C367.811 22.2317 367.685 22.9037 367.685 23.7197V28.0938H366.065ZM376.494 28.3098C375.954 28.3098 375.444 28.1957 374.964 27.9677C374.484 27.7397 374.094 27.3737 373.794 26.8697C373.494 26.3537 373.344 25.6697 373.344 24.8177V18.7337H374.964V24.6017C374.964 25.3337 375.12 25.8977 375.432 26.2937C375.744 26.6777 376.2 26.8697 376.8 26.8697C377.292 26.8697 377.766 26.7737 378.222 26.5817C378.69 26.3777 379.104 26.1077 379.464 25.7717V18.7337H381.084V25.6637C381.084 26.1797 381.192 26.5217 381.408 26.6897C381.636 26.8457 381.882 26.9237 382.146 26.9237L381.804 28.1838C380.688 28.1838 379.998 27.7397 379.734 26.8517C379.314 27.2837 378.828 27.6377 378.276 27.9137C377.724 28.1777 377.13 28.3098 376.494 28.3098ZM387.739 32.2698C387.187 32.2698 386.647 32.2038 386.119 32.0718C385.603 31.9398 385.141 31.7418 384.733 31.4778L385.327 30.0738C385.615 30.3018 385.951 30.4878 386.335 30.6318C386.719 30.7878 387.187 30.8658 387.739 30.8658C388.591 30.8658 389.257 30.6378 389.737 30.1818C390.229 29.7378 390.475 29.0238 390.475 28.0397V26.8877C390.235 27.1757 389.887 27.4517 389.431 27.7157C388.987 27.9677 388.453 28.0938 387.829 28.0938C387.121 28.0938 386.449 27.9137 385.813 27.5537C385.177 27.1817 384.661 26.6417 384.265 25.9337C383.869 25.2257 383.671 24.3737 383.671 23.3777C383.671 22.4417 383.863 21.6077 384.247 20.8757C384.643 20.1437 385.171 19.5677 385.831 19.1477C386.491 18.7277 387.217 18.5177 388.009 18.5177C388.537 18.5177 389.017 18.6077 389.449 18.7877C389.881 18.9677 390.253 19.1897 390.565 19.4537V18.7337H392.041V27.8777C392.041 28.9098 391.861 29.7498 391.501 30.3978C391.141 31.0458 390.637 31.5198 389.989 31.8198C389.353 32.1198 388.603 32.2698 387.739 32.2698ZM388.189 26.6537C388.669 26.6537 389.101 26.5457 389.485 26.3297C389.869 26.1137 390.181 25.8617 390.421 25.5737V20.6777C390.157 20.4857 389.839 20.3117 389.467 20.1557C389.095 19.9997 388.663 19.9217 388.171 19.9217C387.679 19.9217 387.217 20.0537 386.785 20.3177C386.353 20.5817 385.999 20.9657 385.723 21.4697C385.459 21.9617 385.327 22.5677 385.327 23.2877C385.327 23.9717 385.459 24.5657 385.723 25.0697C385.999 25.5737 386.353 25.9637 386.785 26.2397C387.217 26.5157 387.685 26.6537 388.189 26.6537ZM395.011 28.0938V18.7337H396.577V20.7677C396.733 20.3717 396.943 20.0057 397.207 19.6697C397.471 19.3217 397.801 19.0457 398.197 18.8418C398.593 18.6257 399.055 18.5177 399.583 18.5177C399.763 18.5177 399.943 18.5297 400.123 18.5537C400.303 18.5657 400.453 18.5897 400.573 18.6257L400.087 20.2997C399.859 20.2037 399.589 20.1557 399.277 20.1557C398.833 20.1557 398.407 20.2817 397.999 20.5337C397.603 20.7857 397.273 21.1757 397.009 21.7037C396.757 22.2317 396.631 22.9037 396.631 23.7197V28.0938H395.011ZM405.417 28.3098C404.637 28.3098 403.929 28.1117 403.293 27.7157C402.657 27.3197 402.147 26.7617 401.763 26.0417C401.391 25.3097 401.205 24.4517 401.205 23.4678C401.205 22.5317 401.391 21.6917 401.763 20.9477C402.147 20.2037 402.669 19.6157 403.329 19.1837C404.001 18.7397 404.769 18.5177 405.633 18.5177C406.173 18.5177 406.659 18.6137 407.091 18.8057C407.535 18.9857 407.919 19.2137 408.243 19.4897V18.7337H409.719V25.8257C409.719 26.2817 409.827 26.5817 410.043 26.7257C410.271 26.8577 410.517 26.9237 410.781 26.9237L410.439 28.1838C409.287 28.1838 408.591 27.7157 408.351 26.7797C408.075 27.1637 407.697 27.5177 407.217 27.8417C406.749 28.1537 406.149 28.3098 405.417 28.3098ZM405.777 26.8697C406.233 26.8697 406.665 26.7617 407.073 26.5457C407.481 26.3177 407.823 26.0357 408.099 25.6997V20.6777C407.775 20.4497 407.415 20.2697 407.019 20.1377C406.635 19.9937 406.227 19.9217 405.795 19.9217C405.219 19.9217 404.709 20.0717 404.265 20.3717C403.833 20.6597 403.491 21.0677 403.239 21.5957C402.987 22.1117 402.861 22.7177 402.861 23.4137C402.861 24.0857 402.987 24.6857 403.239 25.2137C403.491 25.7297 403.839 26.1377 404.283 26.4377C404.727 26.7257 405.225 26.8697 405.777 26.8697ZM413.125 28.0938V18.7337H414.691V20.2997C415.027 19.7957 415.453 19.3757 415.969 19.0397C416.485 18.6917 417.073 18.5177 417.733 18.5177C418.477 18.5177 419.083 18.6977 419.551 19.0577C420.031 19.4177 420.367 19.8977 420.559 20.4977C420.931 19.9457 421.369 19.4777 421.873 19.0938C422.389 18.7097 423.025 18.5177 423.781 18.5177C424.801 18.5177 425.557 18.8417 426.049 19.4897C426.553 20.1257 426.805 20.9597 426.805 21.9917V28.0938H425.185V22.1177C425.185 21.4697 425.035 20.9477 424.735 20.5517C424.435 20.1437 424.021 19.9397 423.493 19.9397C422.953 19.9397 422.449 20.1437 421.981 20.5517C421.525 20.9477 421.123 21.4157 420.775 21.9557V28.0938H419.155V22.1177C419.155 21.4697 419.005 20.9477 418.705 20.5517C418.405 20.1437 417.991 19.9397 417.463 19.9397C416.935 19.9397 416.437 20.1377 415.969 20.5337C415.501 20.9177 415.093 21.3737 414.745 21.9017V28.0938H413.125Z" fill="#B5FDE7"/>
<defs>
<clipPath id="clip0_872_3191">
<rect width="24" height="24" fill="white" transform="translate(10.5117 9.59375)"/>
</clipPath>
</defs>
</svg>
